<svg height="24" viewBox="0 0 24 24" width="24" xmlns="http://www.w3.org/2000/svg"><g fill="#000" fill-rule="evenodd"><path d="m12.9713714 2.77709711c-1.1899073.80976638-1.9713714 2.17507428-1.9713714 3.72290289 0 2.48528137 2.0147186 4.5 4.5 4.5 1.9027198 0 3.5296257-1.18089953 4.1877885-2.84976922l2.3122115 1.84976922h-2v11h-5.5v-7h-5v7h-5.5v-11h-2l10-8zm2.5286286 7.22290289c-1.9329966 0-3.5-1.56700338-3.5-3.5s1.5670034-3.5 3.5-3.5 3.5 1.56700338 3.5 3.5-1.5670034 3.5-3.5 3.5zm.5-4v-2h-1v2h-2v1h2v2h1v-2h2v-1z"/><path d="m5 4h3v5h-3z"/></g></svg>