<svg height="24" viewBox="0 0 24 24" width="24" xmlns="http://www.w3.org/2000/svg"><path d="m13.5021786 3.14389163c.7958736-.71140112 1.8463407-1.14389163 2.9978214-1.14389163 2.4852814 0 4.5 2.01471863 4.5 4.5 0 .6608464-.1424506 1.28842167-.3983206 1.85369455l1.6941315 1.24319762-.5916218.80621563-1.6165639-1.18627608c-.028633.03775155-.0578413.0750286-.0876181.11182666l-.0000071 11.67134162h-6v-6.7307692h-4v6.7307692h-6v-11.84746992l-1.70418912 1.25057772-.59162176-.80621563 3.30504302-2.42532545-.00923214-3.17156672h3v.97686445l4-2.93530274 1.5021741 1.10233393zm-.6701571.74859177-.8320215-.61055878-7 5.13677978v11.5812956h4v-6.7307692h6v6.7307692h4v-9.7577745c-.715054.4786403-1.5749294.7577745-2.5.7577745-2.4852814 0-4.5-2.01471863-4.5-4.5 0-.97192252.3081247-1.87187866.8320194-2.60751363zm3.6679785 6.1075166c1.9329966 0 3.5-1.56700338 3.5-3.5s-1.5670034-3.5-3.5-3.5-3.5 1.56700338-3.5 3.5 1.5670034 3.5 3.5 3.5zm.5-4h2v1h-2v2h-1v-2h-2v-1h2v-2h1z"/></svg>