<svg height="24" viewBox="0 0 24 24" width="24" xmlns="http://www.w3.org/2000/svg"><g fill="#000" fill-rule="nonzero"><g transform="matrix(-1 0 0 1 16 6.5)"><path d="m2.87868-.12132h1v7h-1z" transform="matrix(.70710678 .70710678 -.70710678 .70710678 3.37868 -1.399495)"/><path d="m2.87868 4.12132h1v7h-1z" transform="matrix(-.70710678 .70710678 -.70710678 -.70710678 11.156855 10.62132)"/></g><path d="m12 21c4.9705627 0 9-4.0294373 9-9 0-4.97056275-4.0294373-9-9-9-4.97056275 0-9 4.02943725-9 9 0 4.9705627 4.02943725 9 9 9zm0 1c-5.5228475 0-10-4.4771525-10-10s4.4771525-10 10-10 10 4.4771525 10 10-4.4771525 10-10 10z"/></g></svg>