<svg height="24" viewBox="0 0 24 24" width="24" xmlns="http://www.w3.org/2000/svg"><g fill="#000" fill-rule="evenodd"><path d="m13 4h6 1v17h-8-8v-13h8v-4zm6 6v-1h-6v1zm0 1h-3.8369209c-.8946737-.6300293-1.9856707-1-3.1630791-1-.043359 0-.0866009.0005017-.12972.0014997-1.1277758.0261019-2.17163253.3916723-3.03335913.9985003h-3.83692087v1h2.75716211c-.25362821.3071077-.47455629.6422183-.65745252 1h-2.09970959v1h1.70703249c-.09115314.3222824-.15366467.6565902-.18461098 1h-1.52242151v1h1.52242151c.03094631.3434098.09345784.6777176.18461098 1h-1.70703249v1h2.09970959c.18289623.3577817.40382431.6928923.65745252 1h-2.75716211v1h3.83692087c.8946737.6300293 1.98567073 1 3.16307913 1s2.2684054-.3699707 3.1630791-1h3.8369209v-1h-2.7571621c.2536282-.3071077.4745563-.6422183.6574525-1h2.0997096v-1h-1.7070325c.0911532-.3222824.1536647-.6565902.184611-1h1.5224215v-1h-1.5224215c-.0309463-.3434098-.0934578-.6777176-.184611-1h1.7070325v-1h-2.0997096c-.1828962-.3577817-.4038243-.6928923-.6574525-1h2.7571621zm-14-1h6v-1h-6zm14-2v-1h-6v1zm0-2v-1h-6v1z" fill-rule="nonzero"/><path d="m12 20c2.4852814 0 4.5-2.0147186 4.5-4.5s-2.0147186-4.5-4.5-4.5c-2.48528137 0-4.5 2.0147186-4.5 4.5s2.01471863 4.5 4.5 4.5zm0 1c-3.03756612 0-5.5-2.4624339-5.5-5.5s2.46243388-5.5 5.5-5.5c3.0375661 0 5.5 2.4624339 5.5 5.5s-2.4624339 5.5-5.5 5.5z" fill-rule="nonzero"/><path d="m12.1367188 17.796875c.4453147-.0208334.7526033-.1835922.921875-.4882812.0885421-.1562508.1328124-.3372386.1328124-.5429688 0-.3255225-.1197904-.5729158-.359375-.7421875-.1380215-.0989588-.36979-.1927079-.6953124-.28125zm-1.3242188-3.7695312c0 .2578137.0852856.4596346.2558594.6054687.1705737.1458341.4003892.2473955.6894531.3046875v-1.8359375c-.3411475.0130209-.5839837.1171865-.7285156.3125-.144532.1953135-.2167969.3997385-.2167969.6132813zm-.703125.046875c0-.3958354.1451808-.7526026.4355469-1.0703126.290366-.3177099.697263-.4791666 1.2207031-.484375v-.5195312h.3710938v.5117188c.5182317.0364585.9160142.1894517 1.1933593.4589843.2773452.2695326.422526.6256489.4355469 1.0683594h-.6835938c-.0182292-.1979177-.0716141-.3684889-.1601562-.5117187-.1640633-.2630222-.4257795-.4010417-.7851562-.4140626v1.8984376c.6041696.1692716 1.0143218.3281242 1.2304687.4765624.3515643.2447929.5273437.6067685.5273437 1.0859376 0 .6927117-.2252581 1.1848943-.6757812 1.4765624-.2500013.1614592-.6106747.268229-1.0820312.3203126v.7578124h-.3710938v-.7578124c-.7578163-.0494795-1.2721341-.3177059-1.5429688-.8046876-.1484382-.2630221-.2226562-.6184873-.2226562-1.0664062h.6914062c.0208335.3567726.0768225.6171867.1679688.78125.1614591.2942723.4609353.4596352.8984375.4960938v-2.1289063c-.5625028-.1067714-.9778632-.285155-1.2460937-.5351563-.2682306-.2500012-.4023438-.5963519-.4023438-1.0390624z"/></g></svg>