<svg height="24" viewBox="0 0 24 24" width="24" xmlns="http://www.w3.org/2000/svg"><g fill-rule="evenodd" transform="matrix(-1 0 0 -1 20 21.01933)"><path d="m0 6.98067h5v9h-5z"/><path d="m4.48671449 10.0951646c-.11273732.4792445-.13413296.6115795-.12670924.7043817.00242142.0302697.04819604.3093585.06570995.4550679.04784246.3980319.0742848.9332047.0742848 1.7260558 0 .9916785.54883518 1.7674886 1.51016937 2.3457833.69422069.4176114 1.60603013.6959084 1.97082522.6959084h4.01900541c.9885691 0 2.9883564-1.9298077 2.9883564-3.0416917v-3.99999997c0-.7958895-.4602778-1.50157763-.9984673-1.50258014-.260205-.0004847-.4981227.0027364-.8721629.0103819-.9485127.01938788-1.0978616.01850741-1.3067173-.03860504-.1506181-.03895352-.2555948-.06784586-.3614472-.10494394-.8774311-.30751305-1.1891058-1.0597634-.6701151-2.27930289.2992241-.70312569.4628987-1.81053251.3599368-2.66803879-.1119086-.93201805-.473832-1.40081322-1.1064731-1.39756098-.54119955.00278216-.77175033.48694654-1.02961831 2.03151493-.00867508.05201945-.00867508.05201945-.01736765.10423175-.13540485.8130965-.21139569 1.17274036-.3580231 1.56359217-.34302149.9143622-.9934535 1.67923627-1.97360744 2.48332722-.17377137.14255719-.35309262.28285139-.57290383.44984211-.08240321.06260177-.43195236.32560506-.51879358.39180765-.26394551.20121639-.43350749.35513209-.54984842.4963944-.15452587.18762684-.23677733.37527114-.33526826.76070326-.03712705.14529218-.19565189.83450406-.19076522.81373096zm-.97342898-.22898912c-.00778354.03308771.15469703-.67332242.19532635-.83232029.13169039-.51535414.26959935-.82997262.53222535-1.14885572.17281974-.20983943.39556655-.41203236.71549668-.65592809.08999574-.0686074.44044608-.33228875.52012391-.39282005.21070798-.160075.38081476-.29316014.54358441-.42669182.85635729-.70253164 1.40288409-1.34521861 1.67157553-2.06144573.11533373-.30743499.18380703-.63150041.3078908-1.37661464.00868944-.0521936.00868944-.0521936.01743512-.10463637.34119538-2.04367992.73002977-2.86024518 2.01082604-2.86682941 1.2391787-.00637028 1.9389953.90009377 2.1044822 2.27833279.1240403 1.03305576-.0656358 2.31638657-.4326609 3.178833-.2966889.69716811-.2411578.83119659.0807161.94400362.0681158.02387254.1348102.0422286.2944716.08407834.0609233.01665972.3037475.01809127 1.0225114.00339952.3809282-.00778629.6250153-.01109091.8944618-.010589 1.2010876.00223731 1.9966045 1.22190708 1.9966045 2.5025784v3.99999997c0 1.6722961-2.4553158 4.0416917-3.9883564 4.0416917h-4.01900541c-1.82839021 0-4.48099459-1.5956854-4.48099459-4.0416917 0-.7557154-.02453392-1.2522633-.06713842-1.6067172-.01293894-.1076473-.06325137-.4144033-.069672-.4946662-.01878653-.2348461.01241492-.4278314.15009593-1.01311112z" fill-rule="nonzero"/></g></svg>