<svg height="24" viewBox="0 0 24 24" width="24" xmlns="http://www.w3.org/2000/svg"><g fill="#000" fill-rule="nonzero"><path d="m14.0804847 17.999984 5.9195153.0000062v-1.0015803c0-.1457149-.2375483-.5035975-.4055561-.5810331-.8225481-.3791162-1.6351272-1.4660355-2.0428909-2.6483872-.0729216-.2460442-.6817688-2.6425759-.7865469-3.0440576-.039811-.1525451-.0783574-.2991352-.1158417-.4404637-.3192481-1.20367458-.563939-2.02931226-.7059614-2.35548588-.2846562-.70564132-.8212428-1.30406107-1.6004592-1.76314946-.8191683-.49356232-1.2942017-1.13400004-1.3145415-2.14849403-.0091874-.45824475-.5587595-1.0019695-1.0280585-1.01714534-.4693605.01496776-1.0191503.55881813-1.0283395 1.01715436-.0203398 1.014494-.4953732 1.65493172-1.32305173 2.15356431-.77070615.45401812-1.30729277 1.05243787-1.60292959 1.7842245-.13104177.3000283-.37573267 1.12566598-.69498078 2.32934054-.03748427.1413285-.07603068.2879186-.11584168.4404637-.10477811.4014817-.71362528 2.7980134-.80022663 3.0866874-.394084 1.1397219-1.20666302 2.2266412-2.02921115 2.6057575-.16800779.0774355-.40555612.4353181-.40555612.581033v1.01302l10.08119378-.0059522zm-11.08047808 1.0120455v-2.0136106c0-.5437128.47134605-1.2515567.98697255-1.4892113.53050595-.2445127 1.18505011-1.1057073 1.50269717-2.0243676.21176471-.7145135 1.21621263-4.96025946 1.63974204-5.92995643.37058824-.91866028 1.05882353-1.68421052 2.01176471-2.24558213.42352941-.25518342.8164062-.59296959.83082212-1.31199861.0201883-1.00694036 1.02143519-1.98490459 2.02799479-1.99730283 1.0065662.01238921 2.0078131.99035345 2.0280014 1.9972938.0144159.71902902.4072927 1.0568152.8308221 1.31199861.9529412.56137161 1.6411765 1.32692185 2.0117647 2.24558214.4235294.96969697 1.4279774 5.21544285 1.6397421 5.92995645.317647.9186603.9721912 1.7798549 1.5026972 2.0243676.5156264.2376546.9869725.9454985.9869725 1.4892113v2.0015813z"/><path d="m14.8292943 19h1.0446882c-.4440428 1.7252272-2.0101431 3-3.8739825 3s-3.42993972-1.2747728-3.87398251-3h1.04468822c.41183641 1.1651924 1.52307549 2 2.82929429 2s2.4174579-.8348076 2.8292943-2z"/></g></svg>