<svg height="24" viewBox="0 0 24 24" width="24" xmlns="http://www.w3.org/2000/svg"><g fill="#000" fill-rule="evenodd"><path d="m12.0000066 1.99999097c1.0065596.01239824 2.0078065.99036248 2.0279948 1.99730283.0144159.71902902.4072927 1.0568152.8308221 1.31199861.9529412.56137161 1.6411765 1.32692185 2.0117647 2.24558214.4235294.96969697 1.4279774 5.21544285 1.6397421 5.92995645.317647.9186603.9721912 1.7798549 1.5026972 2.0243676.5156264.2376546.9869725.9454985.9869725 1.4892113v2.0015813l-5.781041-.000006c.0002093.0016097.0004187.0032196.0006281.0048296l-12.21958048.0072147v-1.147736-.8658746c0-.5437128.47134605-1.2515567.98697255-1.4892113.53050595-.2445127 1.18505011-1.1057073 1.50269717-2.0243676.21176471-.7145135 1.21621263-4.96025946 1.63974204-5.92995643.37058824-.91866028 1.05882353-1.68421052 2.01176471-2.24558213.42352941-.25518342.8164062-.59296959.83082212-1.31199861.0201883-1.00694036 1.02143519-1.98490459 2.02799479-1.99730283z"/><path d="m12 21c1.6568542 0 3-1.3431458 3-3s-1.3431458-3-3-3-3 1.3431458-3 3 1.3431458 3 3 3zm0 1c-2.209139 0-4-1.790861-4-4s1.790861-4 4-4 4 1.790861 4 4-1.790861 4-4 4z" fill-rule="nonzero"/></g></svg>