<svg height="24" viewBox="0 0 24 24" width="24" xmlns="http://www.w3.org/2000/svg"><g fill="#000" fill-rule="nonzero"><path d="m3 7v10h18v-10zm-1-1h20v12h-20z"/><g transform="translate(10.5 8)"><path d="m3.5 2.5c0 .27614237-.22385763.5-.5.5s-.5-.22385763-.5-.5c0-.55228475-.44771525-1-1-1s-1 .44771525-1 1 .44771525 1 1 1c1.1045695 0 2 .8954305 2 2s-.8954305 2-2 2-2-.8954305-2-2c0-.27614237.22385762-.5.5-.5s.5.22385763.5.5c0 .55228475.44771525 1 1 1s1-.44771525 1-1-.44771525-1-1-1c-1.1045695 0-2-.8954305-2-2s.8954305-2 2-2 2 .8954305 2 2z"/><path d="m1 0c0-.27614238.22385763-.5.5-.5s.5.22385762.5.5v1.00882813c0 .27614237-.22385763.5-.5.5s-.5-.22385763-.5-.5z"/><path d="m1 7c0-.27614237.22385763-.5.5-.5s.5.22385763.5.5v1.00882813c0 .27614237-.22385763.5-.5.5s-.5-.22385763-.5-.5z"/></g><path d="m3 9.87398251c1.40560729-.36177831 2.5122042-1.46837522 2.87398251-2.87398251h1.02599937c-.39768247 1.95913038-1.9408515 3.5022994-3.89998188 3.8999819z"/><path d="m17.1000181 15.9740006c1.4056073-.3617783 2.5122042-1.4683752 2.8739825-2.8739825h1.0259994c-.3976825 1.9591304-1.9408515 3.5022994-3.8999819 3.8999819z" transform="matrix(-1 0 0 -1 38.100018 30.100018)"/><path d="m3 15.9740006c1.40560729-.3617783 2.5122042-1.4683752 2.87398251-2.8739825h1.02599937c-.39768247 1.9591304-1.9408515 3.5022994-3.89998188 3.8999819z" transform="matrix(0 -1 1 0 -10.100018 20)"/><path d="m17.1000181 9.87398251c1.4056073-.36177831 2.5122042-1.46837522 2.8739825-2.87398251h1.0259994c-.3976825 1.95913038-1.9408515 3.5022994-3.8999819 3.8999819z" transform="matrix(0 1 -1 0 28 -10.100018)"/><path d="m6 11.5h3v1h-3z"/><path d="m15 11.5h3v1h-3z"/></g></svg>