<svg height="24" viewBox="0 0 24 24" width="24" xmlns="http://www.w3.org/2000/svg"><g fill="#000" fill-rule="nonzero"><path d="m7 3c-1.1045695 0-2 .8954305-2 2s.8954305 2 2 2v1c-1.65685425 0-3-1.34314575-3-3s1.34314575-3 3-3z"/><path d="m5 19c0 1.1045695.8954305 2 2 2v1c-1.65685425 0-3-1.3431458-3-3z"/><path d="m4 5h1v14h-1z"/><path d="m7 2h12.5c.2761424 0 .5.22385763.5.5 0 .27614237-.2238576.5-.5.5h-12.5z"/><path d="m7 7h13v1h-13z"/><path d="m7 21h12v1h-12z"/><path d="m19 7h1v14c0 .5522847-.4477153 1-1 1z"/><path d="m7 5.49148996c-.27614237 0-.5-.22385763-.5-.5 0-.27614238.22385763-.5.5-.5h11c.2761424 0 .5.22385762.5.5 0 .27614237-.2238576.5-.5.5z"/><g transform="translate(10.5 10.5)"><path d="m3.5 2.5c0 .27614237-.22385763.5-.5.5s-.5-.22385763-.5-.5c0-.55228475-.44771525-1-1-1s-1 .44771525-1 1 .44771525 1 1 1c1.1045695 0 2 .8954305 2 2s-.8954305 2-2 2-2-.8954305-2-2c0-.27614237.22385762-.5.5-.5s.5.22385763.5.5c0 .55228475.44771525 1 1 1s1-.44771525 1-1-.44771525-1-1-1c-1.1045695 0-2-.8954305-2-2s.8954305-2 2-2 2 .8954305 2 2z"/><path d="m1 0c0-.27614238.22385763-.5.5-.5s.5.22385762.5.5v1.00882813c0 .27614237-.22385763.5-.5.5s-.5-.22385763-.5-.5z"/><path d="m1 7c0-.27614237.22385763-.5.5-.5s.5.22385763.5.5v1.00882813c0 .27614237-.22385763.5-.5.5s-.5-.22385763-.5-.5z"/></g></g></svg>