<svg height="24" viewBox="0 0 24 24" width="24" xmlns="http://www.w3.org/2000/svg"><g fill="#000" fill-rule="nonzero"><path d="m16.0986177 8.6375396.6888323.7249208-6.744906 6.4091259-2.92241197-3.4145694.75973594-.6502317 2.23746613 2.6142732z"/><path d="m6 4c-1.1045695 0-2 .8954305-2 2v12c0 1.1045695.8954305 2 2 2h12c1.1045695 0 2-.8954305 2-2v-12c0-1.1045695-.8954305-2-2-2zm0-1h12c1.6568542 0 3 1.34314575 3 3v12c0 1.6568542-1.3431458 3-3 3h-12c-1.65685425 0-3-1.3431458-3-3v-12c0-1.65685425 1.34314575-3 3-3z"/></g></svg>