<svg height="24" viewBox="0 0 24 24" width="24" xmlns="http://www.w3.org/2000/svg"><g fill-rule="evenodd" transform="translate(2 2)"><path d="m14.2281879 11.6107383h-4.83221475v-5.90604031c0-.32218121.21473155-.53691276.53691276-.53691276.32214769 0 .53691279.21473155.53691279.53691276v4.83221481h3.7583892c.3221477 0 .5369128.2147315.5369128.5369127 0 .3221477-.2147651.5369128-.5369128.5369128"/><path d="m10 19c4.9705627 0 9-4.0294373 9-9 0-4.97056275-4.0294373-9-9-9-4.97056275 0-9 4.02943725-9 9 0 4.9705627 4.02943725 9 9 9zm0 1c-5.5228475 0-10-4.4771525-10-10s4.4771525-10 10-10 10 4.4771525 10 10-4.4771525 10-10 10z" fill-rule="nonzero"/></g></svg>