<svg height="24" viewBox="0 0 24 24" width="24" xmlns="http://www.w3.org/2000/svg"><g fill="#000" fill-rule="nonzero"><path d="m12 21c4.9705627 0 9-4.0294373 9-9 0-4.97056275-4.0294373-9-9-9-4.97056275 0-9 4.02943725-9 9 0 4.9705627 4.02943725 9 9 9zm0 1c-5.5228475 0-10-4.4771525-10-10s4.4771525-10 10-10 10 4.4771525 10 10-4.4771525 10-10 10z"/><path d="m11.5 6h1v12h-1z" transform="matrix(.70710678 .70710678 -.70710678 .70710678 12 -4.970563)"/><path d="m11.5 6h1v12h-1z" transform="matrix(-.70710678 .70710678 -.70710678 -.70710678 28.970563 12)"/></g></svg>