<svg height="24" viewBox="0 0 24 24" width="24" xmlns="http://www.w3.org/2000/svg"><g fill-rule="evenodd" transform="translate(2 2)"><path d="m10.1021345 12.5314372c-1.45419468 0-2.63723892-1.1830797-2.63723892-2.63727437 0-1.45419469 1.18304424-2.63727433 2.63723892-2.63727433 1.4541947 0 2.6372743 1.18307964 2.6372743 2.63727433 0 1.45419467-1.1830796 2.63727437-2.6372743 2.63727437m0-6.26569915c-2.00070795 0-3.62838937 1.62768142-3.62838937 3.62842478 0 2.00074337 1.62768142 3.62842477 3.62838937 3.62842477 2.0007434 0 3.6284248-1.6276814 3.6284248-3.62842477 0-2.00074336-1.6276814-3.62842478-3.6284248-3.62842478"/><path d="m16.8007292 16.0863327-1.6562124-.9552566c-.1830796-.1056283-.4128849-.0835752-.5724248.0549735-.6739115.5848495-1.436177 1.0298053-2.2656283 1.3225132-.1981593.0699115-.3306549.2572036-.3306549.4673275v1.8212389h-4.02141588v-1.8212389c0-.2099115-.13224779-.397062-.33012389-.4671505-.81971682-.2903363-1.57525664-.7300531-2.24569912-1.3070442-.15964602-.1373452-.38867256-.1588319-.57107964-.0535575l-1.62428319.9379823-2.01061947-3.4823009 1.64378761-.948885c.18113274-.104531.27713274-.3115044.2399292-.5173451-.0759292-.4202124-.11444247-.8385841-.11444247-1.24343365 0-.43610619.04424778-.8759646.13525663-1.34470796.04031859-.20753983-.05546902-.41780531-.23854867-.52357522l-1.45808849-.84254868 2.01079646-3.48254867 1.50438938.86842478c.18028318.1040354.40644247.08435398.5660177-.04934513.65164601-.5459823 1.37918584-.96336283 2.16244247-1.24049558.1979823-.0700531.33026549-.25723894.33026549-.46722124v-1.82095575h4.02141588v1.82095575c0 .20994691.1322832.39709735.3301593.46715045.7919292.28046017 1.5265487.70325663 2.1835045 1.25667256.1595398.13440708.3860531.15454867.5667964.05033629l1.5363186-.88573452 2.0109381 3.48279646-1.5046372.86962832c-.1819469.10513274-.2777699.31359292-.2391504.52017699.0865486.46261947.1286371.89472567.1286371 1.32099115 0 .39617695-.0362832.80665485-.1077522 1.22007075-.0354336.2046726.0606018.4097346.240531.5136284l1.6903363.9759292zm3.1664425-3.7921769c-.0340177-.1269735-.117062-.2351859-.2309027-.3009204l-1.826584-1.0545841c.046407-.3528141.0698407-.7028318.0698407-1.04449555 0-.37847787-.0286372-.75911504-.0871151-1.15500885l1.636-.94552212c.236885-.13692036.3179823-.43989381.1811682-.67688496l-2.5063009-4.34067256c-.1367788-.23699115-.4397876-.3181239-.6766726-.18152213l-1.671115.96343363c-.5829735-.45058407-1.215823-.81507964-1.888531-1.08768141v-1.97469027c0-.27369911-.2218407-.49557522-.4955752-.49557522h-5.0125664c-.27369912 0-.49557522.22187611-.49557522.49557522v1.97461947c-.66375221.26899115-1.28888496.6278938-1.86559292 1.07111504l-1.64-.94669026c-.23702655-.13674337-.5401062-.05557522-.67692036.18141593l-2.50630088 4.34067256c-.13681416.23699115-.05571682.54.18120354.67688496l1.58750442.91734513c-.06208849.40421239-.09242478.7941239-.09242478 1.18318584 0 .35153985.02516815.71104425.07500885 1.07277875l-1.7779115 1.0262655c-.11380531.0657345-.19688496.1739469-.23093805.3009204-.0339823.1269734-.01621239.26223.04952212.3760708l2.50630089 4.3407079c.06569911.1138407.1739469.1969204.30092035.2309381s.26223009.0161416.3760708-.0495576l1.755823-1.0139469c.60063717.4738054 1.25677877.8557169 1.95773452 1.1394691v1.9749026c0 .2737345.2218761.4955752.49557522.4955752h5.0125664c.2737345 0 .4955752-.2218407.4955752-.4955752v-1.9744779c.7110088-.286938 1.3750088-.6744778 1.9811327-1.1562477l1.7865133 1.030407c.2370266.136708.5399646.0555045.6767788-.1814867l2.5062655-4.3407079c.0656991-.1138054.0835398-.2490974.0495221-.3760354z"/></g></svg>