<svg height="24" viewBox="0 0 24 24" width="24" xmlns="http://www.w3.org/2000/svg"><g fill="#000" fill-rule="nonzero"><path d="m2 20h20v1h-20z" transform="matrix(-1 0 0 -1 24 41)"/><g transform="matrix(0 1 -1 0 17 4)"><path d="m.4376762 5.5c-.24172189 0-.4376762-.22385763-.4376762-.5s.19595431-.5.4376762-.5h13.1246476c.2417219 0 .4376762.22385763.4376762.5s-.1959543.5-.4376762.5z"/><path d="m9.14807253 1.35517187c-.19615599-.1943642-.19760853-.51094335-.00324433-.70709934.19436419-.19615599.51094335-.19760852.70709934-.00324433l4.39741036 4.35724206-4.36260536 4.27279706c-.1972822.19322096-.51384757.18992868-.70706854-.00735353-.19322097-.1972822-.18992868-.51384757.00735352-.70706854l3.63739458-3.56251544z"/></g><path d="m21 18h1v3h-1z" transform="matrix(-1 0 0 -1 43 39)"/><path d="m2 18h1v3h-1z" transform="matrix(-1 0 0 -1 5 39)"/></g></svg>