<svg height="24" viewBox="0 0 24 24" width="24" xmlns="http://www.w3.org/2000/svg"><path d="m12.32 3.5c1.800009 0 3.3133272.3533298 4.54 1.06s2.1366637 1.659994 2.73 2.86.89 2.5599924.89 4.08c0 1.0800054-.1533318 2.019996-.46 2.82s-.7366639 1.4133312-1.29 1.84-1.196663.64-1.93.64c-.6800034 0-1.2066648-.1766649-1.58-.53s-.6199994-.7899974-.74-1.31c-.3600018.5466694-.8433303.9733318-1.45 1.28s-1.3033294.46-2.09.46c-.6266698 0-1.1999974-.1633317-1.72-.49s-.9333318-.7966636-1.24-1.41-.46-1.3333292-.46-2.16c0-1.066672.2199978-1.9966627.66-2.79s1.0133298-1.3999979 1.72-1.82 1.4533294-.63 2.24-.63c1.5466744 0 2.5466644.5799942 3 1.74l.4-1.62h1.04l-.78 6.22c-.0133334.1066672-.02.259999-.02.46 0 .9866716.4199958 1.48 1.26 1.48.7200036 0 1.2666648-.3533298 1.64-1.06s.56-1.7466598.56-3.12c0-1.3466734-.2599974-2.5299949-.78-3.55s-1.2999948-1.8199971-2.34-2.4-2.3066592-.87-3.8-.87c-1.533341 0-2.8633277.3099969-3.99.93s-1.989997 1.496661-2.59 2.63-.9 2.466659-.9 4c0 1.4533406.3033303 2.7233279.91 3.81s1.443328 1.9199971 2.51 2.5 2.26666.87 3.6.87c1.0400052 0 1.8766635-.1133322 2.51-.34s1.2366638-.5466646 1.81-.96l.7.92c-.7200036.5066692-1.4433297.893332-2.17 1.16s-1.6766608.4-2.85.4c-1.666675 0-3.1299937-.3466632-4.39-1.04s-2.2366632-1.673327-2.93-2.94-1.04-2.7266584-1.04-4.38c0-1.7066752.3633297-3.2233267 1.09-4.55s1.75666-2.356663 3.09-3.09 2.8799912-1.1 4.64-1.1zm-.02 5.08c-1.0266718 0-1.839997.3533298-2.44 1.06s-.9 1.6799938-.9 2.92c0 .9200046.2133312 1.6399974.64 2.16s1.0333294.78 1.82.78c.800004 0 1.499997-.2533308 2.1-.76s.9599994-1.226662 1.08-2.16l.12-.98c.0266668-.266668.04-.466666.04-.6 0-.7466704-.1966647-1.3366645-.59-1.77s-1.0166624-.65-1.87-.65z"/></svg>