<?xml version="1.0" encoding="utf-8"?>
<!-- Generator: Adobe Illustrator 24.2.1, SVG Export Plug-In . SVG Version: 6.00 Build 0)  -->
<svg version="1.1" xmlns="http://www.w3.org/2000/svg" xmlns:xlink="http://www.w3.org/1999/xlink" x="0px" y="0px"
	 viewBox="0 0 24 24" style="enable-background:new 0 0 24 24;" xml:space="preserve">
<style type="text/css">
	.st0{display:none;}
	.st1{display:inline;}
</style>
<g id="Layer_1" class="st0">
	<g transform="translate(-2 -2)" class="st1">
		<path d="M14,5c5,0,9,4,9,9s-4,9-9,9s-9-4-9-9S9,5,14,5 M14,4C8.5,4,4,8.5,4,14s4.5,10,10,10s10-4.5,10-10S19.5,4,14,4z"/>
		<path d="M16.5,20h-5c-0.3,0-0.5-0.2-0.5-0.5s0.2-0.5,0.5-0.5h5c0.3,0,0.5,0.2,0.5,0.5S16.8,20,16.5,20z"/>
		<path d="M13,15.4c-1.7-0.2-3.3-0.8-4.7-1.8c-0.2-0.2-0.5-0.1-0.7,0.1c-0.2,0.2-0.1,0.5,0.1,0.7c0.6,0.4,1.1,0.7,1.8,1l-0.5,0.1
			c-0.3,0-0.5,0.3-0.4,0.6c0,0.3,0.2,0.4,0.5,0.4h0.1l2.4-0.3c0.5,0.1,1,0.2,1.4,0.3H13c0.3,0,0.5-0.2,0.5-0.5S13.3,15.4,13,15.4
			L13,15.4z"/>
		<path d="M20.4,13.7c-0.2-0.2-0.5-0.3-0.7-0.1c-1.4,1-3,1.7-4.7,1.9c-0.3,0-0.5,0.2-0.5,0.5c0,0.3,0.2,0.5,0.5,0.5H15
			c0.5-0.1,1-0.1,1.5-0.3l2.4,0.3H19c0.3,0,0.5-0.2,0.5-0.4c0-0.3-0.2-0.5-0.4-0.6l-0.5-0.1c0.6-0.3,1.2-0.6,1.8-1
			C20.5,14.3,20.6,14,20.4,13.7C20.4,13.7,20.4,13.7,20.4,13.7z"/>
	</g>
</g>
<g id="Layer_2">
	<path d="M12,2C6.5,2,2,6.5,2,12c0,5.5,4.5,10,10,10s10-4.5,10-10C22,6.5,17.5,2,12,2z M7,14.5c-0.3,0-0.5-0.2-0.5-0.4
		c0-0.3,0.2-0.5,0.4-0.6l0.5-0.1c-0.6-0.3-1.2-0.6-1.8-1c-0.2-0.2-0.3-0.5-0.1-0.7c0.2-0.2,0.5-0.3,0.7-0.1c1.4,1,3,1.6,4.7,1.8l0,0
		c0.3,0,0.5,0.2,0.5,0.5c0,0.3-0.2,0.5-0.5,0.5h-0.1c-0.5-0.1-1-0.1-1.5-0.3L7,14.5L7,14.5z M14.5,18h-5C9.2,18,9,17.8,9,17.5
		C9,17.2,9.2,17,9.5,17h5c0.3,0,0.5,0.2,0.5,0.5C15,17.8,14.8,18,14.5,18z M18.3,12.4c-0.6,0.4-1.1,0.7-1.8,1l0.5,0.1
		c0.3,0,0.5,0.3,0.4,0.6c0,0.3-0.2,0.4-0.5,0.4h-0.1l-2.4-0.3c-0.5,0.1-1,0.2-1.5,0.3h0c-0.3,0-0.5-0.2-0.5-0.5
		c0-0.3,0.2-0.5,0.5-0.5c1.7-0.2,3.3-0.8,4.7-1.9c0.2-0.2,0.5-0.1,0.7,0.1c0,0,0,0,0,0C18.6,12,18.5,12.3,18.3,12.4z"/>
</g>
</svg>
