<?xml version="1.0" encoding="utf-8"?>
<!-- Generator: Adobe Illustrator 24.2.1, SVG Export Plug-In . SVG Version: 6.00 Build 0)  -->
<svg version="1.1" xmlns="http://www.w3.org/2000/svg" xmlns:xlink="http://www.w3.org/1999/xlink" x="0px" y="0px"
	 viewBox="0 0 24 24" style="enable-background:new 0 0 24 24;" xml:space="preserve">
<style type="text/css">
	.st0{display:none;}
	.st1{display:inline;}
</style>
<g id="Layer_1" class="st0">
	<g transform="translate(-2 -2)" class="st1">
		<path d="M14,5c5,0,9,4,9,9s-4,9-9,9s-9-4-9-9S9,5,14,5 M14,4C8.5,4,4,8.5,4,14s4.5,10,10,10s10-4.5,10-10S19.5,4,14,4z"/>
		<path d="M18,11.5c-0.3,0-0.5-0.2-0.5-0.5s-0.2-0.5-0.5-0.5s-0.5,0.2-0.5,0.5s-0.2,0.5-0.5,0.5s-0.5-0.2-0.5-0.5
			c0-0.8,0.7-1.5,1.5-1.5s1.5,0.7,1.5,1.5C18.5,11.3,18.3,11.5,18,11.5z"/>
		<path d="M14,21.5c-3.4,0-6.3-2.2-7.2-5.5c-0.1-0.3,0.1-0.6,0.4-0.6c0,0,0.1,0,0.1,0h13.5c0.2,0,0.3,0.1,0.4,0.2
			c0.1,0.1,0.1,0.3,0.1,0.4C20.3,19.3,17.4,21.5,14,21.5z M8,16.4c1.3,3.3,5.1,5,8.5,3.6c1.6-0.7,2.9-2,3.6-3.6H8z"/>
		<path d="M12,11.5c-0.3,0-0.5-0.2-0.5-0.5s-0.2-0.5-0.5-0.5s-0.5,0.2-0.5,0.5s-0.2,0.5-0.5,0.5S9.5,11.3,9.5,11
			c0-0.8,0.7-1.5,1.5-1.5s1.5,0.7,1.5,1.5C12.5,11.3,12.3,11.5,12,11.5z"/>
	</g>
</g>
<g id="Layer_2">
	<g>
		<path d="M12,2C6.5,2,2,6.5,2,12c0,5.5,4.5,10,10,10s10-4.5,10-10C22,6.5,17.5,2,12,2z M15,7.5c0.8,0,1.5,0.7,1.5,1.5
			c0,0.3-0.2,0.5-0.5,0.5S15.5,9.3,15.5,9c0-0.3-0.2-0.5-0.5-0.5S14.5,8.7,14.5,9c0,0.3-0.2,0.5-0.5,0.5S13.5,9.3,13.5,9
			C13.5,8.2,14.2,7.5,15,7.5z M9,7.5c0.8,0,1.5,0.7,1.5,1.5c0,0.3-0.2,0.5-0.5,0.5S9.5,9.3,9.5,9c0-0.3-0.2-0.5-0.5-0.5
			S8.5,8.7,8.5,9c0,0.3-0.2,0.5-0.5,0.5S7.5,9.3,7.5,9C7.5,8.2,8.2,7.5,9,7.5z M12,19.5c-3.4,0-6.3-2.2-7.2-5.5
			c-0.1-0.3,0.1-0.6,0.4-0.6c0,0,0.1,0,0.1,0h13.5c0.2,0,0.3,0.1,0.4,0.2c0.1,0.1,0.1,0.3,0.1,0.4C18.3,17.3,15.4,19.5,12,19.5z"/>
	</g>
</g>
</svg>
