<svg enable-background="new 0 0 24 24" viewBox="0 0 24 24" xmlns="http://www.w3.org/2000/svg"><g><path d="m8.64 8.95c-.28 0-.5.22-.5.5v1.45c0 .28.22.5.5.5s.5-.22.5-.5v-1.45c0-.27-.23-.5-.5-.5z"/><path d="m15.36 11.41c.28 0 .5-.22.5-.5v-1.46c0-.28-.22-.5-.5-.5s-.5.22-.5.5v1.45c0 .29.23.51.5.51z"/><path d="m15.35 15.1c-.2-.2-.51-.2-.71 0-.7.71-1.64 1.1-2.64 1.1s-1.94-.39-2.65-1.1c-.2-.2-.51-.2-.71 0s-.2.51 0 .71c.9.9 2.09 1.39 3.35 1.39 1.27 0 2.46-.49 3.35-1.39.21-.2.21-.51.01-.71z"/><path d="m11.44 14.03c.91 0 1.51-.61 1.51-1.51v-3.07c0-.28-.22-.5-.5-.5s-.5.22-.5.5v3.06c0 .46-.28.51-.51.51-.28 0-.5.22-.5.5 0 .29.22.51.5.51z"/><path d="m3.5 9.95c.28 0 .5-.22.5-.5v-2.55c0-1.6 1.3-2.9 2.9-2.9h1.65c.28 0 .5-.22.5-.5s-.23-.5-.5-.5h-1.65c-2.15 0-3.9 1.75-3.9 3.9v2.55c0 .28.22.5.5.5z"/><path d="m8.55 20h-1.65c-1.6 0-2.9-1.3-2.9-2.9v-2.55c0-.28-.22-.5-.5-.5s-.5.22-.5.5v2.55c0 2.15 1.75 3.9 3.9 3.9h1.65c.28 0 .5-.22.5-.5s-.23-.5-.5-.5z"/><path d="m17.1 3h-1.65c-.28 0-.5.22-.5.5s.23.5.5.5h1.65c1.6 0 2.9 1.3 2.9 2.9v2.55c0 .28.22.5.5.5s.5-.22.5-.5v-2.55c0-2.15-1.75-3.9-3.9-3.9z"/><path d="m20.5 14.05c-.28 0-.5.22-.5.5v2.55c0 1.6-1.3 2.9-2.9 2.9h-1.65c-.28 0-.5.22-.5.5s.22.5.5.5h1.65c2.15 0 3.9-1.75 3.9-3.9v-2.55c0-.28-.22-.5-.5-.5z"/></g></svg>