<?xml version="1.0" encoding="utf-8"?>
<!-- Generator: Adobe Illustrator 24.2.1, SVG Export Plug-In . SVG Version: 6.00 Build 0)  -->
<svg version="1.1" xmlns="http://www.w3.org/2000/svg" xmlns:xlink="http://www.w3.org/1999/xlink" x="0px" y="0px"
	 viewBox="0 0 24 24" style="enable-background:new 0 0 24 24;" xml:space="preserve">
<style type="text/css">
	.st0{display:none;}
	.st1{display:inline;}
</style>
<g id="Layer_1">
	<g>
		<path d="M12,3c5,0,9,4,9,9s-4,9-9,9s-9-4-9-9S7,3,12,3 M12,2C6.5,2,2,6.5,2,12s4.5,10,10,10s10-4.5,10-10S17.5,2,12,2z"/>
		<circle cx="9" cy="9" r="1"/>
		<circle cx="15" cy="9" r="1"/>
		<path d="M12,18.5c-2.4,0-4.6-1.3-5.7-3.4c-0.1-0.2,0-0.5,0.2-0.7c0,0,0,0,0,0c0.2-0.1,0.5,0,0.7,0.2c0,0,0,0,0,0
			c1.4,2.7,4.8,3.7,7.4,2.2c1-0.5,1.7-1.3,2.2-2.2c0.1-0.2,0.4-0.3,0.7-0.2c0,0,0,0,0,0c0.2,0.1,0.3,0.4,0.2,0.7c0,0,0,0,0,0
			C16.6,17.2,14.4,18.5,12,18.5z"/>
	</g>
</g>
<g id="Layer_2" class="st0">
	<path class="st1" d="M12,2C6.5,2,2,6.5,2,12c0,5.5,4.5,10,10,10s10-4.5,10-10C22,6.5,17.5,2,12,2z M15,8c0.6,0,1,0.4,1,1
		c0,0.6-0.4,1-1,1s-1-0.4-1-1C14,8.4,14.4,8,15,8z M9,8c0.6,0,1,0.4,1,1c0,0.6-0.4,1-1,1S8,9.6,8,9C8,8.4,8.4,8,9,8z M17.7,15.1
		C17.7,15.1,17.7,15.1,17.7,15.1c-1.1,2.1-3.3,3.4-5.7,3.4c-2.4,0-4.6-1.3-5.7-3.4c-0.1-0.2,0-0.5,0.2-0.7c0,0,0,0,0,0
		c0.2-0.1,0.5,0,0.7,0.2c0,0,0,0,0,0c1.4,2.7,4.8,3.7,7.4,2.2c1-0.5,1.7-1.3,2.2-2.2c0.1-0.2,0.4-0.3,0.7-0.2c0,0,0,0,0,0
		C17.8,14.5,17.8,14.8,17.7,15.1z"/>
</g>
</svg>
