<?xml version="1.0" encoding="utf-8"?>
<!-- Generator: Adobe Illustrator 24.2.1, SVG Export Plug-In . SVG Version: 6.00 Build 0)  -->
<svg version="1.1" xmlns="http://www.w3.org/2000/svg" xmlns:xlink="http://www.w3.org/1999/xlink" x="0px" y="0px"
	 viewBox="0 0 24 24" style="enable-background:new 0 0 24 24;" xml:space="preserve">
<style type="text/css">
	.st0{display:none;}
	.st1{display:inline;}
</style>
<g id="Layer_1" class="st0">
	<g class="st1">
		<path d="M12,3c5,0,9,4,9,9s-4,9-9,9s-9-4-9-9S7,3,12,3 M12,2C6.5,2,2,6.5,2,12s4.5,10,10,10s10-4.5,10-10S17.5,2,12,2z"/>
		<circle cx="9" cy="9" r="1"/>
		<circle cx="15" cy="9" r="1"/>
		<path d="M17.3,16.5c-0.2,0-0.4-0.1-0.5-0.3c-1.4-2.7-4.8-3.7-7.4-2.2c-1,0.5-1.7,1.3-2.2,2.2c-0.1,0.2-0.4,0.3-0.7,0.2
			c-0.2-0.1-0.3-0.4-0.2-0.7c1.7-3.2,5.7-4.3,8.8-2.6c1.1,0.6,2,1.5,2.6,2.6c0.1,0.2,0,0.5-0.2,0.7C17.4,16.5,17.4,16.5,17.3,16.5z"
			/>
	</g>
</g>
<g id="Layer_2">
	<path d="M12,2C6.5,2,2,6.5,2,12c0,5.5,4.5,10,10,10s10-4.5,10-10C22,6.5,17.5,2,12,2z M15,8c0.6,0,1,0.4,1,1c0,0.6-0.4,1-1,1
		s-1-0.4-1-1C14,8.4,14.4,8,15,8z M9,8c0.6,0,1,0.4,1,1c0,0.6-0.4,1-1,1S8,9.6,8,9C8,8.4,8.4,8,9,8z M17.5,16.4
		c-0.1,0-0.1,0.1-0.2,0.1c-0.2,0-0.4-0.1-0.5-0.3c-1.4-2.7-4.8-3.7-7.4-2.2c-1,0.5-1.7,1.3-2.2,2.2c-0.1,0.2-0.4,0.3-0.7,0.2
		c-0.2-0.1-0.3-0.4-0.2-0.7c1.7-3.2,5.7-4.3,8.8-2.6c1.1,0.6,2,1.5,2.6,2.6C17.8,16,17.8,16.3,17.5,16.4z"/>
</g>
</svg>
