<?xml version="1.0" encoding="utf-8"?>
<!-- Generator: Adobe Illustrator 24.2.1, SVG Export Plug-In . SVG Version: 6.00 Build 0)  -->
<svg version="1.1" xmlns="http://www.w3.org/2000/svg" xmlns:xlink="http://www.w3.org/1999/xlink" x="0px" y="0px"
	 viewBox="0 0 24 24" style="enable-background:new 0 0 24 24;" xml:space="preserve">
<style type="text/css">
	.st0{display:none;}
	.st1{display:inline;}
</style>
<g id="Layer_1">
	<g>
		<path d="M12,3c5,0,9,4,9,9s-4,9-9,9s-9-4-9-9S7,3,12,3 M12,2C6.5,2,2,6.5,2,12s4.5,10,10,10s10-4.5,10-10S17.5,2,12,2z"/>
		<path d="M9,8C8.4,8,8,8.4,8,9s0.4,1,1,1s1-0.4,1-1S9.6,8,9,8z"/>
		<g transform="translate(-2 -2)">
			<path d="M17,10c-0.6,0-1,0.4-1,1s0.4,1,1,1s1-0.4,1-1S17.6,10,17,10z"/>
			<path d="M18,18h-8c-0.3,0-0.5-0.2-0.5-0.5S9.7,17,10,17h8c0.3,0,0.5,0.2,0.5,0.5S18.3,18,18,18z"/>
		</g>
	</g>
</g>
<g id="Layer_2" class="st0">
	<path class="st1" d="M12,2C6.5,2,2,6.5,2,12c0,5.5,4.5,10,10,10s10-4.5,10-10C22,6.5,17.5,2,12,2z M15,8c0.6,0,1,0.4,1,1
		c0,0.6-0.4,1-1,1s-1-0.4-1-1C14,8.4,14.4,8,15,8z M9,8c0.6,0,1,0.4,1,1c0,0.6-0.4,1-1,1S8,9.6,8,9C8,8.4,8.4,8,9,8z M16,16H8
		c-0.3,0-0.5-0.2-0.5-0.5C7.5,15.2,7.7,15,8,15h8c0.3,0,0.5,0.2,0.5,0.5C16.5,15.8,16.3,16,16,16z"/>
</g>
</svg>
