<svg height="24" viewBox="0 0 24 24" width="24" xmlns="http://www.w3.org/2000/svg"><g fill="#000" fill-rule="nonzero"><path d="m12 21c4.9705627 0 9-4.0294373 9-9 0-4.97056275-4.0294373-9-9-9-4.97056275 0-9 4.02943725-9 9 0 4.9705627 4.02943725 9 9 9zm0 1c-5.5228475 0-10-4.4771525-10-10s4.4771525-10 10-10 10 4.4771525 10 10-4.4771525 10-10 10z"/><path d="m6.87179487 19.3846218c.51229937.5107029 3.23076923 1.9792088 5.12820513 1.9792088 1.8461538 0 4.7824718-1.4808742 5.1512462-1.8465968-.1538462-.0512821-.4315895-.1447847-.5871436-.1838941-2.6996937-.6787564-3.1282052-2-3.1282052-2.8205128v-.5641346h.4615385c.3589744 0 1.4871795-.102532 2.8717949-.4102244-.8205129-.8717948-1.4871795-1.9487179-1.4871795-5.69230764 0-1.07692308-.3076923-1.8974359-.9230769-2.46153847-1.1282052-.97435897-2.974359-.66666666-2.974359-.66666666h-.1025641c-.7692308 0-1.3846154.2051282-1.84615386.66666666-.87179488.87179488-.87179488 2.25641026-.87179488 2.30769231 0 3.6410256-.51282051 4.8205128-1.43589743 5.7948718 1.38461538.3076923 2.29434126.4017912 2.82051282.4102564h.46153845v.5640705c0 .8205449-.4102564 2.3076923-3.12820512 2.8205128-.10166388.0191819-.23841601.0533806-.41025641.1025962zm.28612501-1.0970503c1.410916-.2769206 2.02473989-.7752151 2.19807543-1.4029701-.60744394-.0520831-1.44775743-.1996811-2.44472064-.4212284l-1.72270404-.3828232 1.21368181-1.2811086c.84511124-.8920618 1.16185012-2.0256536 1.16185012-5.1071271 0-.5318069.09875233-1.20372146.41593243-1.91116667.18551579-.41377833.43191201-.78678877.74875566-1.10363242.65397033-.65397032 1.51681145-.95955988 2.55326065-.95955988h.0310877c.0461577-.00603444.1012464-.01235796.1645313-.01845061.6612379-.06365954 1.3854918-.03183799 2.0966048.1720144.5399339.15478105 1.026865.40093311 1.4604239.77594873.8385977.76871461 1.2473523 1.85872672 1.2473523 3.19869261 0 2.99928014.3443265 4.08144924 1.2153795 5.00694294l1.2048801 1.2801852-1.7161497.3813666c-.9097875.202175-1.8366847.3431237-2.5010353.4025171.168624.6456216.8230548 1.0075031 2.2643845 1.433506.1610727.047607.8640306.2845759 2.1088738.7109066-.5948189.5628143-.995632.915811-1.2024394 1.0589903-.753656.5217797-3.861302 1.6409606-5.6682739 1.6409606-1.910484 0-4.98062928-.8300768-5.82187847-1.6687044l-1.34351504-1.3393283c1.21839629-.2412676 1.82759444-.3619013 1.82759444-.3619013.13370588-.0314683.37333756-.0775905.50804805-.1040301z"/></g></svg>