<svg height="24" viewBox="0 0 24 24" width="24" xmlns="http://www.w3.org/2000/svg"><g fill="#000" fill-rule="evenodd"><path d="m6.87179487 19.3846218c.15384616-.0512821.25641026-.1025962.41025641-.1025962 2.71794872-.5128205 3.12820512-1.9999679 3.12820512-2.8205128v-.5640705h-.46153845c-.35897436.05125-1.43589744-.1025641-2.82051282-.4102564.92307692-.974359 1.43589743-2.1538462 1.43589743-5.7948718 0-.05128205 0-1.43589743.87179488-2.30769231.46153846-.46153846 1.07692306-.66666666 1.84615386-.66666666h.1025641s1.8461538-.30769231 2.974359.66666666c.6153846.56410257.9230769 1.38461539.9230769 2.46153847 0 3.74358974.6666666 4.82051284 1.4871795 5.69230764-1.3846154.3076924-2.5128205.4102244-2.8717949.4102244h-.4615385v.5641346c0 .8205128.4102564 2.3076923 3.1282052 2.8205128.1538461.0512821.3076923.1025641.4615384.1538462-1.4358974.974359-3.1794872 1.5384615-5.025641 1.5384615-1.8974359 0-3.69230769-.6153846-5.12820513-1.6410256"/><path d="m12 21c4.9705627 0 9-4.0294373 9-9 0-4.97056275-4.0294373-9-9-9-4.97056275 0-9 4.02943725-9 9 0 4.9705627 4.02943725 9 9 9zm0 1c-5.5228475 0-10-4.4771525-10-10s4.4771525-10 10-10 10 4.4771525 10 10-4.4771525 10-10 10z" fill-rule="nonzero"/></g></svg>