<svg height="24" viewBox="0 0 24 24" width="24" xmlns="http://www.w3.org/2000/svg"><g fill="#000" fill-rule="nonzero"><g transform="translate(4 3)"><path d="m0 0h1v14.5h-1z"/><path d="m13 0h1v14h-1z"/><path d="m0 0h14v1h-14z"/><path d="m6 14.5h1c0 1.9329966-1.56700338 3.5-3.5 3.5s-3.5-1.5670034-3.5-3.5h1c0 1.3807119 1.11928813 2.5 2.5 2.5s2.5-1.1192881 2.5-2.5z"/><path d="m16 14.5h1c0 1.9329966-1.5670034 3.5-3.5 3.5v-1c1.3807119 0 2.5-1.1192881 2.5-2.5z"/><path d="m3.5 17h10v1h-10z"/><path d="m6 13.5h11v1h-11z"/></g><path d="m7.5 9.66666667c-.27614237 0-.5-.22385763-.5-.5 0-.27614238.22385763-.5.5-.5h7c.2761424 0 .5.22385762.5.5 0 .27614237-.2238576.5-.5.5z"/><path d="m7.5 12.3333333c-.27614237 0-.5-.2238576-.5-.5 0-.2761423.22385763-.5.5-.5h7c.2761424 0 .5.2238577.5.5 0 .2761424-.2238576.5-.5.5z"/><path d="m7.5 15c-.27614237 0-.5-.2238576-.5-.5s.22385763-.5.5-.5h6c.2761424 0 .5.2238576.5.5s-.2238576.5-.5.5z"/><path d="m7.5 7c-.27614237 0-.5-.22385763-.5-.5s.22385763-.5.5-.5h3c.2761424 0 .5.22385763.5.5s-.2238576.5-.5.5z"/></g></svg>