<svg height="24" viewBox="0 0 24 24" width="24" xmlns="http://www.w3.org/2000/svg"><g fill="#000" fill-rule="nonzero"><path d="m17.0842998 7-3.0842998-3.48870437v3.48870437zm.8840818 1h-4.9683816v-1-4h-7v18h12v-12.96423585zm-3.9697244-6h.0013428v.00151883l5 5.65558566v14.34289551h-14v-20z"/><path d="m8.5 13c-.27614237 0-.5-.2238576-.5-.5s.22385763-.5.5-.5h7c.2761424 0 .5.2238576.5.5s-.2238576.5-.5.5z"/><path d="m8.5 16c-.27614237 0-.5-.2238576-.5-.5s.22385763-.5.5-.5h7c.2761424 0 .5.2238576.5.5s-.2238576.5-.5.5z"/><path d="m8.5 19c-.27614237 0-.5-.2238576-.5-.5s.22385763-.5.5-.5h6c.2761424 0 .5.2238576.5.5s-.2238576.5-.5.5z"/><path d="m8.5 10c-.27614237 0-.5-.22385763-.5-.5s.22385763-.5.5-.5h3c.2761424 0 .5.22385763.5.5s-.2238576.5-.5.5z"/></g></svg>