<svg height="24" viewBox="0 0 24 24" width="24" xmlns="http://www.w3.org/2000/svg"><path d="m20.2940907 15.5c.4545691-1.0758888.7059093-2.2585926.7059093-3.5s-.2513402-2.42411121-.7059093-3.5h-2.6718553c.2442375 1.08933646.3777646 2.2686791.3777646 3.5s-.1335271 2.4106635-.3777646 3.5zm-.4981305 1h-2.436335c-.4797545 1.5841048-1.2048993 2.9265322-2.0921779 3.8885213 1.9145878-.7463037 3.5107812-2.1291667 4.5285129-3.8885213zm-7.2959602-1h4.0960911c.2585514-1.0712517.4039089-2.2524214.4039089-3.5s-.1453575-2.42874828-.4039089-3.5h-4.0960911zm0 1v4.452208c1.5738294-.3010232 3.0042837-2.0012765 3.8119271-4.452208zm-8.79409074-1h2.67185535c-.24423748-1.0893365-.37776461-2.2686791-.37776461-3.5s.13352713-2.41066354.37776461-3.5h-2.67185535c-.45456906 1.07588879-.70590926 2.2585926-.70590926 3.5s.2513402 2.4241112.70590926 3.5zm.4981305 1c1.0177317 1.7593546 2.61392518 3.1422176 4.52851291 3.8885213-.88727859-.9619891-1.61242333-2.3044165-2.09217783-3.8885213zm7.29596024-1v-7h-4.09609112c-.25855136 1.07125172-.40390888 2.2524214-.40390888 3.5s.14535752 2.4287483.40390888 3.5zm0 1h-3.81192707c.80764335 2.4509315 2.23809764 4.1511848 3.81192707 4.452208zm8.2959602-9c-1.0177317-1.75935464-2.6139251-3.14221759-4.5285129-3.88852135.8872786.96198917 1.6124234 2.30441652 2.0921779 3.88852135zm-7.2959602 0h3.8119271c-.8076434-2.45093149-2.2380977-4.15118477-3.8119271-4.452208zm-8.29596024 0h2.43633508c.4797545-1.58410483 1.20489924-2.92653218 2.09217783-3.88852135-1.91458773.74630376-3.51078121 2.12916671-4.52851291 3.88852135zm7.29596024 0v-4.452208c-1.57382943.30102323-3.00428372 2.00127651-3.81192707 4.452208zm.5 14.5c-5.5228475 0-10-4.4771525-10-10s4.4771525-10 10-10 10 4.4771525 10 10-4.4771525 10-10 10z"/></svg>