<svg height="24" viewBox="0 0 24 24" width="24" xmlns="http://www.w3.org/2000/svg"><g fill="#000" fill-rule="evenodd"><path d="m4 10h5v9h-5z"/><path d="m8.48671449 13.1144945c-.11273732.4792446-.13413296.6115796-.12670924.7043818.00242142.0302696.04819604.3093585.06570995.4550679.04784246.3980319.0742848.9332047.0742848 1.7260558 0 .9916785.54883518 1.7674886 1.5101694 2.3457833.6942207.4176114 1.6060301.6959084 1.9708252.6959084h4.0190054c.9885691 0 2.9883564-1.9298077 2.9883564-3.0416917v-4c0-.7958895-.4602778-1.5015776-.9984673-1.5025801-.260205-.0004847-.4981227.0027364-.8721629.0103819-.9485127.0193878-1.0978616.0185074-1.3067173-.0386051-.1506181-.0389535-.2555948-.0678458-.3614472-.1049439-.8774311-.3075131-1.1891058-1.05976342-.6701151-2.27930291.2992241-.70312569.4628987-1.81053251.3599368-2.66803879-.1119086-.93201805-.473832-1.40081322-1.1064731-1.39756098-.5411996.00278216-.7717503.48694654-1.0296183 2.03151493-.0086751.05201945-.0086751.05201945-.0173677.10423175-.1354048.81309651-.2113956 1.17274037-.3580231 1.56359218-.3430214.91436219-.9934535 1.67923626-1.9736074 2.48332722-.1737714.1425572-.3530926.2828514-.5729038.4498421-.08240324.0626018-.43195239.3256051-.51879361.3918077-.26394551.2012163-.43350749.355132-.54984842.4963944-.15452587.1876268-.23677733.3752711-.33526826.7607032-.03712705.1452922-.19565189.8345041-.19076522.8137309zm-.97342898-.228989c-.00778354.0330877.15469703-.6733225.19532635-.8323203.13169039-.5153542.26959935-.8299727.53222535-1.1488558.17281974-.2098394.39556655-.4120323.71549668-.655928.08999574-.0686074.44044608-.3322888.52012391-.3928201.21070798-.160075.38081476-.29316014.5435844-.42669182.8563573-.70253164 1.4028841-1.34521861 1.6715755-2.06144573.1153338-.30743499.1838071-.63150041.3078908-1.37661463.0086895-.05219361.0086895-.05219361.0174352-.10463638.3411953-2.04367992.7300297-2.86024518 2.010826-2.86682941 1.2391787-.00637028 1.9389953.90009377 2.1044822 2.27833279.1240403 1.03305576-.0656358 2.31638657-.4326609 3.17883301-.2966889.6971681-.2411578.83119658.0807161.94400361.0681158.02387255.1348102.0422286.2944716.08407834.0609233.01665972.3037475.01809127 1.0225114.00339952.3809282-.00778629.6250153-.01109091.8944618-.010589 1.2010876.00223732 1.9966045 1.2219071 1.9966045 2.5025784v4c0 1.6722961-2.4553158 4.0416917-3.9883564 4.0416917h-4.0190054c-1.8283902 0-4.4809946-1.5956854-4.4809946-4.0416917 0-.7557154-.02453392-1.2522633-.06713842-1.6067173-.01293894-.1076472-.06325137-.4144033-.069672-.4946661-.01878653-.2348461.01241492-.4278314.15009593-1.0131111z" fill-rule="nonzero"/></g></svg>