<svg height="24" viewBox="0 0 24 24" width="24" xmlns="http://www.w3.org/2000/svg"><path d="m17.557787 7.85642661c1.4804698.98734829 2.9612075 2.36853939 4.442213 4.14357339-3.3333333 4.0076259-6.6666667 6.0114389-10 6.0114389-1.2504289 0-2.50085771-.2819796-3.75128657-.8459388l-1.90556768 1.9055677-.70710678-.7071068 12.72792203-12.72792203.7071068.70710678zm-7.58975435 7.58975429c.59551325.3518897 1.29015875.5538191 2.03196735.5538191 2.209139 0 4-1.790861 4-4 0-.7418086-.2019294-1.4364541-.5538191-2.03196735zm5.77459685-8.60302397-1.7106622 1.71066216c-.5955132-.3518897-1.2901587-.55381909-2.0319673-.55381909-2.209139 0-4 1.790861-4 4 0 .7418086.20192939 1.4364541.55381909 2.0319673l-2.11819382 2.1181939c-1.47854176-.9891415-2.95708351-2.3725285-4.43562527-4.1501612 3.32652478-4.00000363 6.65713521-6.00000544 9.9918313-6.00000544 1.2500749 0 2.500341.28105412 3.7507982.84316237zm-3.7426295 3.65684307c-.8284271 0-1.5.6715729-1.5 1.5h-1c0-1.3807119 1.1192881-2.5 2.5-2.5z"/></svg>