<svg height="24" viewBox="0 0 24 24" width="24" xmlns="http://www.w3.org/2000/svg"><path d="m16.9219971 8.63435209-1.424014 1.42401401c.3198326.5749691.5020169 1.2370258.5020169 1.9416339 0 2.209139-1.790861 4-4 4-.7046081 0-1.3666648-.1821843-1.9416339-.5020169l-.94594899.945949c.97128179.3793994 1.93386949.5675068 2.88758289.5675068 2.8183833 0 5.7142662-1.6427452 8.6829954-5.0104227-1.2671912-1.4330037-2.5209733-2.55311409-3.7609983-3.36666411zm.7207989-.72079895c1.4521437.98323817 2.904545 2.34538716 4.357204 4.08644686-3.3333333 4.0076259-6.6666667 6.0114389-10 6.0114389-1.2176432 0-2.43528641-.2673867-3.65292962-.8021601l-1.93285682 1.9328568-.70710678-.7071068 12.72792202-12.72792202.7071068.70710678zm-2.5616818-.26674525c-1.039849-.43249613-2.0696807-.64681333-3.0892829-.64681333-2.81981666 0-5.71309772 1.63931187-8.67572678 5.00000054 1.32388703 1.5019437 2.63328765 2.6608586 3.92778918 3.4840333l-.72284334.7228433c-1.50701679-.9927133-3.01403357-2.3950038-4.52105036-4.2068717 3.32652478-4.00000363 6.65713521-6.00000544 9.9918313-6.00000544 1.2826191 0 2.5654394.29587841 3.848461.88763524zm-4.2769531 7.10538021c.3663792.1594142.7707859.2478119 1.1958389.2478119 1.6568542 0 3-1.3431458 3-3 0-.425053-.0883977-.8294597-.2478119-1.1958389zm2.5839781-5.41240519c-.4150871-.21704268-.8872794-.33978291-1.3881392-.33978291-1.6568542 0-3 1.3431458-3 3 0 .5008598.12274023.9730521.33978291 1.3881392l-.73219428.7321942c-.38501239-.6146989-.60758863-1.3415234-.60758863-2.1203334 0-2.209139 1.790861-4 4-4 .77881 0 1.5056345.22257624 2.1203334.60758863zm-1.3881392 1.66021709c-.5522847 0-1 .4477153-1 1h-1c0-1.1045695.8954305-2 2-2z"/></svg>