<svg height="24" viewBox="0 0 24 24" width="24" xmlns="http://www.w3.org/2000/svg"><g fill="#000" fill-rule="evenodd"><path d="m12 21c4.9705627 0 9-4.0294373 9-9 0-4.97056275-4.0294373-9-9-9-4.97056275 0-9 4.02943725-9 9 0 4.9705627 4.02943725 9 9 9zm0 1c-5.5228475 0-10-4.4771525-10-10s4.4771525-10 10-10 10 4.4771525 10 10-4.4771525 10-10 10z" fill-rule="nonzero"/><path d="m12.69 12.65v1.95c0 .5000025.005.7949995.015.885.0500003.4500023.1849989.675.405.675.0500002 0 .174999-.0249997.375-.075.0500002-.0200001.1249995-.03.225-.03.3800019 0 .57.1649983.57.495 0 .1400007-.0624994.2599995-.1875.36s-.282499.15-.4725.15c-.1600008 0-.4024984-.0224998-.7275-.0675s-.5674992-.0675-.7275-.0675c-.2600013 0-.5499984.0199998-.87.06-.390002.0500002-.6499993.075-.78.075-.400002 0-.6-.1699983-.6-.51 0-.3300017.1699983-.495.51-.495.0800004 0 .1974992.0149998.3525.045s.2724996.045.3525.045c.2400012 0 .3849998-.3199968.435-.96v-3.84c-.0500002-.6300031-.1999987-.945-.45-.945-.0800004 0-.1924993.0174998-.3375.0525s-.2524996.0525-.3225.0525c-.3600018 0-.54-.1599984-.54-.48 0-.3400017.2199978-.51.66-.51.190001 0 .3249996.00499995.405.015.3200016.0400002.5249996.06.615.06.0800004 0 .2024992-.01249987.3675-.0375.1650008-.02500012.2874996-.0375.3675-.0375.2900015 0 .435.19499805.435.585 0 .0400002-.005.0999996-.015.18s-.015.1399998-.015.18c-.01.0800004-.0199999.3899973-.03.93-.01.410002-.015.8299978-.015 1.26zm-.78-3.93c-.2300011 0-.4274992-.08249917-.5925-.2475-.1650008-.16500082-.2475-.36249885-.2475-.5925s.0824992-.4249992.2475-.585.3624989-.24.5925-.24.4274992.0799992.5925.24.2475.35499885.2475.585-.0824992.42749918-.2475.5925c-.1650008.16500083-.3624989.2475-.5925.2475z"/></g></svg>