<svg height="24" viewBox="0 0 24 24" width="24" xmlns="http://www.w3.org/2000/svg"><path d="m12 22c-5.5228475 0-10-4.4771525-10-10s4.4771525-10 10-10 10 4.4771525 10 10-4.4771525 10-10 10zm.69-9.35c0-.4300021.0049999-.8499979.015-1.26.01-.5400027.0199999-.8499996.03-.93 0-.0400002.0049999-.0999996.015-.18.01-.0800004.015-.1399998.015-.18 0-.39000195-.1449986-.585-.435-.585-.0800004 0-.2024992.01249988-.3675.0375-.1650008.02500013-.2874996.0375-.3675.0375-.0900005 0-.2949984-.0199998-.615-.06-.0800004-.01000005-.2149991-.015-.405-.015-.4400022 0-.66.1699983-.66.51 0 .3200016.1799982.48.54.48.0700003 0 .1774993-.0174998.3225-.0525s.2574996-.0525.3375-.0525c.2500012 0 .3999997.3149969.45.945v3.84c-.0500003.6400032-.1949988.96-.435.96-.0800004 0-.1974992-.0149998-.3525-.045-.1550008-.0300001-.2724996-.045-.3525-.045-.3400017 0-.51.1649984-.51.495 0 .3400017.199998.51.6.51.1300006 0 .389998-.0249997.78-.075.3200016-.0400002.6099987-.06.87-.06.1600008 0 .4024984.0224998.7275.0675s.5674992.0675.7275.0675c.1900009 0 .3474994-.0499995.4725-.15s.1875-.2199993.1875-.36c0-.3300016-.1899981-.495-.57-.495-.1000005 0-.1749998.0099999-.225.03-.200001.0500003-.3249998.075-.375.075-.2200011 0-.3549998-.2249977-.405-.675-.0100001-.0900004-.015-.3849975-.015-.885zm-.78-3.93c.2300011 0 .4274992-.08249917.5925-.2475.1650008-.16500082.2475-.36249885.2475-.5925s-.0824992-.4249992-.2475-.585-.3624989-.24-.5925-.24c-.2300012 0-.4274992.0799992-.5925.24s-.2475.35499885-.2475.585.0824992.42749918.2475.5925c.1650008.16500083.3624988.2475.5925.2475z"/></svg>