<?xml version="1.0" encoding="utf-8"?>
<!-- Generator: Adobe Illustrator 24.2.1, SVG Export Plug-In . SVG Version: 6.00 Build 0)  -->
<svg version="1.1" xmlns="http://www.w3.org/2000/svg" xmlns:xlink="http://www.w3.org/1999/xlink" x="0px" y="0px"
	 viewBox="0 0 24 24" style="enable-background:new 0 0 24 24;" xml:space="preserve">
<g id="Layer_1">
</g>
<g id="Layer_2">
	<path d="M8.6,20.3c-1.8-0.8-3.4-2.1-4.4-3.8h2.4c0.2,0.7,0.5,1.4,0.8,2c0.2-0.3,0.5-0.6,0.7-0.8c-0.2-0.4-0.3-0.7-0.5-1.1h1.6
		c0.4-0.4,0.8-0.7,1.2-1H7.4C7.1,14.4,7,13.2,7,12s0.1-2.4,0.4-3.5h4.1v6.3c0.3-0.2,0.7-0.4,1-0.5V8.5h4.1C16.9,9.6,17,10.8,17,12
		c0,0.5,0,1-0.1,1.5c0.3,0,0.7,0.1,1,0.2C18,13.1,18,12.6,18,12c0-1.2-0.1-2.4-0.4-3.5h2.7C20.7,9.6,21,10.8,21,12
		c0,1-0.2,1.9-0.4,2.8c0.3,0.2,0.6,0.4,0.9,0.6c0.4-1.1,0.6-2.2,0.6-3.4c0-5.5-4.5-10-10-10S2,6.5,2,12c0,4.9,3.6,9,8.3,9.8
		C9.7,21.4,9.2,20.9,8.6,20.3z M19.8,7.5h-2.4c-0.5-1.6-1.2-2.9-2.1-3.9C17.2,4.4,18.8,5.7,19.8,7.5z M12.5,3c1.6,0.3,3,2,3.8,4.5
		h-3.8V3z M11.5,3v4.5H7.7C8.5,5,9.9,3.3,11.5,3z M8.7,3.6c-0.9,1-1.6,2.3-2.1,3.9H4.2C5.2,5.7,6.8,4.4,8.7,3.6z M3,12
		c0-1.2,0.3-2.4,0.7-3.5h2.7C6.1,9.6,6,10.8,6,12s0.1,2.4,0.4,3.5H3.7C3.3,14.4,3,13.2,3,12z"/>
	<g>
		<g>
			<path d="M16,15.6c1.8,0,3.7,1.1,5.6,3.1c-1.9,2.1-3.8,3.1-5.6,3.1c-1.8,0-3.7-1.1-5.6-3.1C12.4,16.7,14.2,15.6,16,15.6 M16,14.6
				c-2.3,0-4.6,1.4-6.9,4.1c2.3,2.8,4.6,4.1,6.9,4.1s4.6-1.4,6.9-4.1C20.7,16,18.3,14.6,16,14.6L16,14.6z"/>
		</g>
	</g>
	<g>
		<circle cx="16.1" cy="18.8" r="2.2"/>
	</g>
</g>
</svg>
