<svg height="24" viewBox="0 0 24 24" width="24" xmlns="http://www.w3.org/2000/svg"><g fill-rule="evenodd" transform="translate(4 4.5)"><path d="m12.0268564 4.63537365c-1.5892618 0-2.66308727.82310469-3.13559734 1.64620938h-.04292617v-1.64620938h-3.17852349v10.35379065h3.3073557v-5.0252708c0-1.29963899.25774497-2.59927798 1.9758658-2.59927798 1.6751409 0 1.7181208 1.51624549 1.7181208 2.68592058v4.8953069h3.3073557v-5.50177802c0-2.72926895-.6013155-4.80869133-3.951651-4.80869133"/><path d="m0 14.9891697h3.43624161v-10.35379064h-3.43624161z"/><path d="m3.43623893 1.73285469c0 .95702166-.7692349 1.73285199-1.71812081 1.73285199-.9488859 0-1.7181208-.77583033-1.7181208-1.73285199s.7692349-1.73285198 1.7181208-1.73285198c.94888591 0 1.71812081.77583032 1.71812081 1.73285198"/></g></svg>