<svg height="24" viewBox="0 0 24 24" width="24" xmlns="http://www.w3.org/2000/svg"><g fill="#000" fill-rule="nonzero"><path d="m6 11h12c1.1045695 0 2 .8954305 2 2v7c0 1.1045695-.8954305 2-2 2h-12c-1.1045695 0-2-.8954305-2-2v-7c0-1.1045695.8954305-2 2-2zm0 1c-.55228475 0-1 .4477153-1 1v7c0 .5522847.44771525 1 1 1h12c.5522847 0 1-.4477153 1-1v-7c0-.5522847-.4477153-1-1-1z"/><path d="m11.5 15h1v3h-1z"/><path d="m8 11h8v-4c0-2.209139-1.790861-4-4-4s-4 1.790861-4 4zm4-9c2.7614237 0 5 2.23857625 5 5v5h-10v-5c0-2.76142375 2.23857625-5 5-5z"/></g></svg>