<svg height="24" viewBox="0 0 24 24" width="24" xmlns="http://www.w3.org/2000/svg"><g fill="#000" fill-rule="nonzero"><g transform="translate(2 7)"><path d="m.4376762 5.5c-.24172189 0-.4376762-.22385763-.4376762-.5s.19595431-.5.4376762-.5h13.1246476c.2417219 0 .4376762.22385763.4376762.5s-.1959543.5-.4376762.5z"/><path d="m10.1480725 1.35517187c-.19615596-.1943642-.1976085-.51094335-.0032443-.70709934s.5109433-.19760852.7070993-.00324433l4.3974104 4.35724206-4.3626054 4.27279706c-.1972822.19322096-.5138475.18992868-.7070685-.00735353-.19322097-.1972822-.18992868-.51384757.0073535-.70706854l3.6373946-3.56251544z"/></g><path d="m20 16.0645313c0-.2761424.2238576-.5000001.5-.5000001s.5.2238577.5.5000001v4.4354687h-14v-17h14v4.6065625c0 .27614237-.2238576.5-.5.5s-.5-.22385763-.5-.5v-3.6065625h-12v15h12z" transform="matrix(-1 0 0 1 28 0)"/></g></svg>