<svg height="24" viewBox="0 0 24 24" width="24" xmlns="http://www.w3.org/2000/svg"><g fill="#000" fill-rule="nonzero"><path d="m7.4376762 12.5c-.24172189 0-.4376762-.2238576-.4376762-.5s.19595431-.5.4376762-.5h13.1246476c.2417219 0 .4376762.2238576.4376762.5s-.1959543.5-.4376762.5z"/><path d="m17.1480725 8.35517187c-.196156-.1943642-.1976085-.51094335-.0032443-.70709934s.5109433-.19760853.7070993-.00324433l4.3974104 4.3572421-4.3626054 4.272797c-.1972822.193221-.5138475.1899287-.7070685-.0073535s-.1899287-.5138476.0073535-.7070686l3.6373946-3.5625154z"/><path d="m13 16.0645313c0-.2761424.2238576-.5.5-.5s.5.2238576.5.5v4.4354687h-11v-17h11v4.6065625c0 .27614237-.2238576.5-.5.5s-.5-.22385763-.5-.5v-3.6065625h-9v15h9z"/></g></svg>