<svg height="24" viewBox="0 0 24 24" width="24" xmlns="http://www.w3.org/2000/svg"><g fill="#000" fill-rule="evenodd"><path d="m12 21c4.9705627 0 9-4.0294373 9-9 0-4.97056275-4.0294373-9-9-9-4.97056275 0-9 4.02943725-9 9 0 4.9705627 4.02943725 9 9 9zm0 1c-5.5228475 0-10-4.4771525-10-10s4.4771525-10 10-10 10 4.4771525 10 10-4.4771525 10-10 10z" fill-rule="nonzero"/><path d="m12.0000128 21.0256346c-1.8974679 0-3.64102562-.5640705-5.07692306-1.5384615.15384616-.05125.30769231-.1025641.46153847-.1538462 2.61538459-.4615384 2.97432689-1.3333333 2.97432689-2.2564102v-.5128205l-.1538141-.1538462c-.51282049-.5128205-.97435895-1.2307692-1.17948715-2.0512821l-.10256411-.3589743h-.35900641c-.20509615-.0512821-.46150641-.9743269-.46150641-1.4358974 0-.4102565.10256411-.6153847.15384616-.6666667 0 0 .05125-.0512821.15384615-.0512821h.56410256l-.1538782-.6153846c-.35894231-1.48717947-.35894231-2.76923075.0513141-3.28205126.15384616-.15384616.30769231-.20512821.51282052-.20512821h.15384615l.1025641-.1025641c1.64102564-1.12820513 3.64102564-1.23076923 4.87179484-.30769231 1.0256411.82051282 1.2820513 2.20512821.6666667 3.89743588l-.2564103.6153846h.6666667c.1025641 0 .1538141.0512821.1538141.0512821.0513141.1025961.1538462.2564102.1538462.7179487s-.2564103 1.3333333-.4615064 1.3846154h-.4102565l-.1025641.3589743c-.2051602.8205129-.6153846 1.5384616-1.1794871 2.0512821l-.1538782.1538462v.5128205c0 .8717948.3589743 1.7435897 2.974391 2.2564102.1538461.0512821.3076923.1025962.4615064.1538462-1.4358654.974391-3.1794872 1.5384615-5.025609 1.5384615"/></g></svg>