<svg height="24" viewBox="0 0 24 24" width="24" xmlns="http://www.w3.org/2000/svg"><g fill="#000" fill-rule="nonzero"><path d="m12 21c4.9705627 0 9-4.0294373 9-9 0-4.97056275-4.0294373-9-9-9-4.97056275 0-9 4.02943725-9 9 0 4.9705627 4.02943725 9 9 9zm0 1c-5.5228475 0-10-4.4771525-10-10s4.4771525-10 10-10 10 4.4771525 10 10-4.4771525 10-10 10z"/><path d="m6.92308974 19.4871731c1.43589744.974391 3.14058536 2.0171443 5.03805336 2.0171443 1.8461218 0 3.6029915-1.0537301 5.0388569-2.0281211-.1538141-.05125-.2820385-.0915873-.4358846-.1428694-2.6154167-.5128205-2.974391-1.3846154-2.974391-2.2564102v-.5128205l.1538782-.1538462c.5641025-.5128205.9743269-1.2307692 1.1794871-2.0512821l.1025641-.3589743h.4102565c.2050961-.0512821.4615064-.9230769.4615064-1.3846154s-.1025321-.6153526-.1538462-.7179487c0 0-.05125-.0512821-.1538141-.0512821h-.6666667l.2564103-.6153846c.6153846-1.69230767.3589744-3.07692306-.6666667-3.89743588-1.2307692-.92307692-3.2307692-.82051282-4.87179484.30769231l-.1025641.1025641h-.15384615c-.20512821 0-.35897436.05128205-.51282052.20512821-.41025641.51282051-.41025641 1.79487179-.0513141 3.28205126l.1538782.6153846h-.56410256c-.10259615 0-.15384615.0512821-.15384615.0512821-.05128205.051282-.15384616.2564102-.15384616.6666667 0 .4615705.25641026 1.3846153.46150641 1.4358974h.35900641l.10256411.3589743c.2051282.8205129.66666666 1.5384616 1.17948715 2.0512821l.1538141.1538462v.5128205c0 .9230769-.3589423 1.7948718-2.97432689 2.2564102-.15384616.0512821-.30769231.1025962-.46153847.1538462zm1.21794704-4.5807776c-.71464276-.3302601-1.03845986-1.4600745-1.03845986-2.3422993 0-.5785953.14518284-1.072217.44651837-1.3735524.05665637-.0566918.12358007-.1108524.20220714-.1594955-.32956976-1.60632751-.26573655-2.95031555.33963645-3.70703181l.07376203-.08241173c.28779486-.28779487.62110184-.44399252 1.00096731-.48619166 1.94304608-1.28888013 4.35933938-1.41294603 5.97186018-.20295499 1.2774784 1.02198274 1.6599966 2.64134134 1.1454639 4.50064349.064002.0427525.1196748.0891808.167906.1374422.0758738.0759212.1390297.1635627.1870435.2595603.0208962.0380215.0584648.1123109.0922485.1939267.1114598.2692683.1672264.5790205.1672264.9713474 0 .8897398-.3473454 2.0259287-1.097196 2.3161216-.2529842.8046763-.6734036 1.5181533-1.2104963 2.0536292v.0917877c0 .5992491.3380882.9165289 2.1668032 1.275096l.1238156.0326309c.0610184.0203395.1063236.0351575.2107486.0690752.1071522.0347969.1579229.0513992.2250173.0737547.7859244.2618656 1.8686925.3412736 1.1832214.8064404-1.6430616 1.1149963-4.5631659 2.3326479-6.5622371 2.3326479-2.05488587 0-4.88863386-1.1554968-6.52584452-2.2664977-.68550377-.4651786.40981831-.5998065 1.19579099-.8616336.11522896-.0383936.11522896-.0383936.23054687-.076837l.07690825-.0256409c.07693296-.0256497.07693296-.0256497.15390545-.051309l.14244243-.0361002c1.82746751-.3224943 2.14811226-.6234129 2.14811226-1.2716267v-.1038075c-.54742077-.5887637-.97986211-1.3100833-1.21791835-2.0667137z"/></g></svg>