<?xml version="1.0" encoding="utf-8"?>
<!-- Generator: Adobe Illustrator 24.2.1, SVG Export Plug-In . SVG Version: 6.00 Build 0)  -->
<svg version="1.1" xmlns="http://www.w3.org/2000/svg" xmlns:xlink="http://www.w3.org/1999/xlink" x="0px" y="0px"
	 viewBox="0 0 24 24" style="enable-background:new 0 0 24 24;" xml:space="preserve">
<style type="text/css">
	.st0{display:none;}
	.st1{display:inline;}
	.st2{display:inline;opacity:0.2;}
	.st3{fill:#FF00FF;}
</style>
<g id="Layer_1" class="st0">
	<g class="st1">
		<path d="M12,3c3.9,0,7,3.1,7,7s-3.1,7-7,7s-7-3.1-7-7S8.1,3,12,3 M12,2c-4.4,0-8,3.6-8,8s3.6,8,8,8s8-3.6,8-8S16.4,2,12,2L12,2z"
			/>
	</g>
	<g class="st1">
		<path d="M12,5c2.8,0,5,2.2,5,5s-2.2,5-5,5s-5-2.2-5-5S9.2,5,12,5 M12,4c-3.3,0-6,2.7-6,6s2.7,6,6,6s6-2.7,6-6S15.3,4,12,4L12,4z"
			/>
	</g>
	<g class="st1">
		<circle cx="12" cy="10" r="3"/>
	</g>
	<circle class="st1" cx="12" cy="17.5" r="4"/>
	<polygon class="st1" points="8.1,18.5 9,22 15,22 15.9,18.4 12,17 	"/>
</g>
<g id="Layer_3">
	<g id="Layer_1_1_">
		<rect x="8" y="21" width="8" height="1"/>
		<rect x="11.5" y="19" width="1" height="2"/>
		<g>
			<path d="M12,19.5c-3.6,0-6.5-2.9-6.5-6.5h1c0,3,2.5,5.5,5.5,5.5s5.5-2.5,5.5-5.5h1C18.5,16.6,15.6,19.5,12,19.5z"/>
		</g>
	</g>
	<g>
		<path d="M12,3c1.7,0,3,1.3,3,3v7c0,1.7-1.3,3-3,3s-3-1.3-3-3V6C9,4.3,10.3,3,12,3 M12,2C9.8,2,8,3.8,8,6v7c0,2.2,1.8,4,4,4
			s4-1.8,4-4V6C16,3.8,14.2,2,12,2L12,2z"/>
	</g>
	<g>
		<polygon points="12,9 8,9 8,10 12,10 12,9 		"/>
	</g>
	<g>
		<polygon points="12,7 8,7 8,8 12,8 12,7 		"/>
	</g>
	<g>
		<polygon points="12,11 8,11 8,12 12,12 12,11 		"/>
	</g>
</g>
<g id="Layer_2" class="st0">
	<g class="st2">
		<path class="st3" d="M12,2.2c5.4,0,9.8,4.4,9.8,9.8s-4.4,9.8-9.8,9.8S2.2,17.4,2.2,12S6.6,2.2,12,2.2 M12,2C6.5,2,2,6.5,2,12
			s4.5,10,10,10s10-4.5,10-10S17.5,2,12,2L12,2z"/>
	</g>
	<g class="st2">
		<path class="st3" d="M20,3.2c0.4,0,0.8,0.3,0.8,0.8v16c0,0.4-0.3,0.8-0.8,0.8H4c-0.4,0-0.8-0.3-0.8-0.8V4c0-0.4,0.3-0.8,0.8-0.8
			H20 M20,3H4C3.5,3,3,3.5,3,4v16c0,0.5,0.5,1,1,1h16c0.5,0,1-0.5,1-1V4C21,3.5,20.5,3,20,3L20,3z"/>
	</g>
	<g class="st2">
		<path class="st3" d="M19,2.2c0.4,0,0.8,0.3,0.8,0.8v18c0,0.4-0.3,0.8-0.8,0.8H5c-0.4,0-0.8-0.3-0.8-0.8V3c0-0.4,0.3-0.8,0.8-0.8
			H19 M19,2H5C4.4,2,4,2.5,4,3v18c0,0.5,0.4,1,1,1h14c0.5,0,1-0.5,1-1V3C20,2.5,19.5,2,19,2L19,2z"/>
	</g>
	<g class="st2">
		<path class="st3" d="M21,4.2c0.4,0,0.8,0.3,0.8,0.8v14c0,0.4-0.3,0.8-0.8,0.8H3c-0.4,0-0.8-0.3-0.8-0.8V5c0-0.4,0.3-0.8,0.8-0.8
			H21 M21,4H3C2.5,4,2,4.4,2,5v14c0,0.5,0.5,1,1,1h18c0.5,0,1-0.5,1-1V5C22,4.4,21.5,4,21,4L21,4z"/>
	</g>
	<g class="st2">
		<path class="st3" d="M12,7.2c2.6,0,4.8,2.1,4.8,4.8s-2.1,4.8-4.8,4.8S7.2,14.6,7.2,12S9.4,7.2,12,7.2 M12,7c-2.8,0-5,2.2-5,5
			s2.2,5,5,5s5-2.2,5-5S14.8,7,12,7L12,7z"/>
	</g>
</g>
</svg>
