<?xml version="1.0" encoding="utf-8"?>
<!-- Generator: Adobe Illustrator 24.2.1, SVG Export Plug-In . SVG Version: 6.00 Build 0)  -->
<svg version="1.1" xmlns="http://www.w3.org/2000/svg" xmlns:xlink="http://www.w3.org/1999/xlink" x="0px" y="0px"
	 viewBox="0 0 24 24" style="enable-background:new 0 0 24 24;" xml:space="preserve">
<style type="text/css">
	.st0{display:none;}
	.st1{display:inline;opacity:0.2;}
	.st2{fill:#FF00FF;}
	.st3{display:inline;opacity:0.2;fill:none;stroke:#FF00FF;stroke-width:0.25;stroke-miterlimit:10;}
</style>
<g id="Layer_1">
	<rect x="8" y="21" width="8" height="1"/>
	<rect x="11.5" y="19" width="1" height="2"/>
	<g>
		<path d="M12,19.5c-3.6,0-6.5-2.9-6.5-6.5h1c0,3,2.5,5.5,5.5,5.5c3,0,5.5-2.5,5.5-5.5h1C18.5,16.6,15.6,19.5,12,19.5z"/>
	</g>
	<path d="M12,2C9.8,2,8,3.8,8,6v1h3v1H8v1h3v1H8v1h3v1H8v1c0,2.2,1.8,4,4,4s4-1.8,4-4V6C16,3.8,14.2,2,12,2z"/>
</g>
<g id="Layer_2" class="st0">
	<g class="st1">
		<path class="st2" d="M12,2.2c5.4,0,9.8,4.4,9.8,9.8s-4.4,9.8-9.8,9.8S2.2,17.4,2.2,12S6.6,2.2,12,2.2 M12,2C6.5,2,2,6.5,2,12
			s4.5,10,10,10s10-4.5,10-10S17.5,2,12,2L12,2z"/>
	</g>
	<g class="st1">
		<path class="st2" d="M20,3.2c0.4,0,0.8,0.3,0.8,0.8v16c0,0.4-0.3,0.8-0.8,0.8H4c-0.4,0-0.8-0.3-0.8-0.8V4c0-0.4,0.3-0.8,0.8-0.8
			H20 M20,3H4C3.5,3,3,3.5,3,4v16c0,0.5,0.5,1,1,1h16c0.5,0,1-0.5,1-1V4C21,3.5,20.5,3,20,3L20,3z"/>
	</g>
	<g class="st1">
		<path class="st2" d="M21,4.2c0.4,0,0.8,0.3,0.8,0.8v14c0,0.4-0.3,0.8-0.8,0.8H3c-0.4,0-0.8-0.3-0.8-0.8V5c0-0.4,0.3-0.8,0.8-0.8
			H21 M21,4H3C2.5,4,2,4.4,2,5v14c0,0.5,0.5,1,1,1h18c0.5,0,1-0.5,1-1V5C22,4.4,21.5,4,21,4L21,4z"/>
	</g>
	<g class="st1">
		<path class="st2" d="M19,2.2c0.4,0,0.8,0.3,0.8,0.8v18c0,0.4-0.3,0.8-0.8,0.8H5c-0.4,0-0.8-0.3-0.8-0.8V3c0-0.4,0.3-0.8,0.8-0.8
			H19 M19,2H5C4.4,2,4,2.5,4,3v18c0,0.5,0.4,1,1,1h14c0.5,0,1-0.5,1-1V3C20,2.5,19.5,2,19,2L19,2z"/>
	</g>
	<circle class="st3" cx="12" cy="12" r="5"/>
</g>
</svg>
