<svg height="24" viewBox="0 0 24 24" width="24" xmlns="http://www.w3.org/2000/svg"><g fill-rule="evenodd" transform="translate(4 2)"><path d="m11.8980849 5.89274999c-.3142589.05880616-.5993383.08935615-.8404307.10387514 1.6428321 1.5795405 4.9423458 5.37439387 4.9423458 10.37261267 0 2.0019924-1.6107723 3.6307622-3.5906805 3.6307622h-8.81876043c-1.97990823 0-3.59055907-1.6287698-3.59055907-3.6307622 0-5.5711087 4.0991457-9.64720839 5.43417422-10.82689528-3.28156939-2.95910269-3.54437912-4.15647291-3.54437912-4.46019025 0-.40244926.2048495-.60304454.32693337-.68670266.48059326-.32968973 1.23110087-.0270776 2.18090181.35609193.60610799.2446194 1.29306883.52171964 1.71260498.52171964.83937592 0 1.24616021-.31473872 1.67677834-.64783617.37894273-.29312576.80834639-.62542501 1.47268787-.62542501.66312701 0 1.07653013.33417196 1.44099043.62917043.4217221.34132512.8203392.66370819 1.7086276.66370819.2712806 0 .4896714.13901063.5847334.37181044.1099883.26936763.0955342 1.12059455-2.0636247 3.44372061.2032411-.01026268.4514071-.03374673.7289482-.08225898.0436337-.01567979.0904235-.02474908.1391604-.02600095.7044613-.14016258 1.5707586-.44306196 2.3683988-1.08371109.1920552-.15460123.472638-.12371166.6264724.06834356.1541411.19174846.1234049.47220859-.0683436.62616564-.4464933.35860369-.9078174.62668206-1.3568935.82659144.3613747.22060282.6771229.51876928.921823.88098832.1376994.20386503.0842331.48073619-.1196319.61855828-.0764418.05156442-.1634356.07628834-.2492025.07628834-.1429448 0-.2834049-.06868098-.3695092-.19610429-.3753596-.55560515-.9885761-.89680135-1.6535654-.92451995zm-5.66172337-.79139279 3.49971533.00233428c1.30726144-1.34582385 2.02511134-2.36114166 2.26454804-2.83969749-.9567461-.07960065-1.4676796-.49492553-1.8865901-.83544279-.34635502-.28148415-.54267265-.4285512-.87508393-.4285512-.34301094 0-.56258811.15780586-.92136418.43671148-.47065473.36599918-1.05656208.82145807-2.1758861.82145807-.57924898 0-1.30429552-.29395209-2.00557495-.57807544-.4051757-.16426735-.99003802-.40134016-1.26392725-.42900624.15366572.65268877 1.77955553 2.4233536 3.36416314 3.85026933zm.12372103.890879c-.5413824.44929267-5.36008256 4.6118132-5.36008256 10.3015238 0 1.4923604 1.19492496 2.70624 2.66379886 2.70624h8.67255154c1.4688441 0 2.6636496-1.2138796 2.6636496-2.70624 0-5.7004384-4.8187618-9.85359811-5.35984192-10.3015238z"/><g fill-rule="nonzero" transform="translate(6 7.5)"><path d="m4.5 3c0 .27614237-.22385763.5-.5.5s-.5-.22385763-.5-.5c0-.82842712-.67157288-1.5-1.5-1.5s-1.5.67157288-1.5 1.5.67157288 1.5 1.5 1.5c1.38071187 0 2.5 1.11928813 2.5 2.5s-1.11928813 2.5-2.5 2.5-2.5-1.11928813-2.5-2.5c0-.27614237.22385762-.5.5-.5s.5.22385763.5.5c0 .82842712.67157288 1.5 1.5 1.5s1.5-.67157288 1.5-1.5-.67157288-1.5-1.5-1.5c-1.38071187 0-2.5-1.11928813-2.5-2.5s1.11928813-2.5 2.5-2.5 2.5 1.11928813 2.5 2.5z"/><path d="m1.5 0c0-.27614238.22385763-.5.5-.5s.5.22385762.5.5v1c0 .27614237-.22385763.5-.5.5s-.5-.22385763-.5-.5z"/><path d="m1.5 9c0-.27614237.22385763-.5.5-.5s.5.22385763.5.5v1c0 .2761424-.22385763.5-.5.5s-.5-.2238576-.5-.5z"/></g></g></svg>