<?xml version="1.0" encoding="utf-8"?>
<!-- Generator: Adobe Illustrator 24.2.1, SVG Export Plug-In . SVG Version: 6.00 Build 0)  -->
<svg version="1.1" xmlns="http://www.w3.org/2000/svg" xmlns:xlink="http://www.w3.org/1999/xlink" x="0px" y="0px"
	 viewBox="0 0 24 24" style="enable-background:new 0 0 24 24;" xml:space="preserve">
<style type="text/css">
	.st0{display:none;}
	.st1{display:inline;fill-rule:evenodd;clip-rule:evenodd;}
	.st2{display:inline;opacity:0.2;}
	.st3{fill:#FF00FF;}
</style>
<g id="Layer_3">
	<g>
		<path d="M14.6,22c-0.2,0-0.4-0.1-0.6-0.3L11,18l-4.2,2c-0.4,0.2-0.7,0.1-0.8,0c-0.1-0.1-0.4-0.3-0.3-0.8l1-4.5l-4.2-2
			c-0.4-0.2-0.5-0.5-0.5-0.7c0-0.1,0-0.5,0.5-0.7l4.2-2l-1-4.5c-0.1-0.3,0-0.6,0.3-0.8c0.1-0.1,0.4-0.2,0.8,0l4.2,2L14,2.3
			C14.2,2.1,14.5,2,14.8,2c0.2,0,0.5,0.2,0.6,0.6c0,0,0.8,3.5,1,4.7c0.2-0.2,0.4-0.2,0.6-0.2l1.7,0c0.2,0,0.4,0.1,0.5,0.3
			c0.2-0.2,0.4-0.3,0.6-0.3l1.3,0c0.5,0,0.7,0.3,0.7,0.4c0.1,0.1,0.2,0.5-0.1,0.9L18.7,12l2.9,3.6c0.2,0.3,0.3,0.6,0.1,0.9
			c0,0-0.2,0.4-0.7,0.4h-4.7l-1.1,4.5c-0.1,0.5-0.4,0.6-0.6,0.6C14.7,22,14.6,22,14.6,22z M11.3,16.8l3.1,3.9l1.1-4.8h5L17.4,12
			l3.1-3.9l-0.7,0L15,13.3l-0.3,0.1c-0.1,0-0.2,0-0.3-0.1l-0.2-0.1l-0.1-0.3c0-0.2,0-0.4,0.1-0.5c0.1-0.1,2.1-2.6,3.5-4.3l-0.8,0
			l-1.5,1.6c-1.2,1.3-3.1,3.2-3.2,3.4c-0.1,0.1-0.3,0.2-0.4,0.2l-0.2,0l-0.3-0.2l-0.1-0.3c0-0.2,0-0.4,0.1-0.5l4-4.8l0,0l0,0
			c-0.1-0.6-0.7-3.2-0.9-4.2l-3.1,3.8L6.9,5l1,4.8l-4.5,2.1l4.4,2.2l-1.1,4.8L11.3,16.8z M14.4,12.4C14.4,12.4,14.4,12.5,14.4,12.4
			L14.4,12.4z M6.8,4.5L6.8,4.5C6.8,4.5,6.8,4.5,6.8,4.5z"/>
	</g>
</g>
<g id="Layer_4" class="st0">
	<path class="st1" d="M11.2,6.2l3.3-4.1C14.6,2,14.7,2,14.9,2C15,2,15,2.1,15.1,2.3c0,0,1.1,5.1,1.1,5.1c0,0.1,0,0.2-0.1,0.3
		l-4.2,5.1c0,0.1,0,0.1,0,0.1c0,0,0.1,0,0.1,0c0.1-0.1,4.1-4.4,4.9-5.2c0.1-0.1,0.2-0.2,0.4-0.2l1.7,0c0.1,0,0.1,0,0.1,0.1
		c0,0,0,0.1,0,0.1c-1.4,1.7-4.2,5-4.3,5.1c0,0.1,0,0.1,0,0.1c0,0,0.1,0,0.1,0l5-5.3c0.1-0.1,0.2-0.1,0.2-0.1l1.3,0
		c0.2,0,0.3,0,0.3,0.1c0,0.1,0,0.2-0.1,0.3L18.4,12l3.3,4.1c0.1,0.1,0.1,0.2,0.1,0.3c0,0.1-0.1,0.1-0.3,0.1h-5.3l-1.2,5.1
		c0,0.2-0.1,0.2-0.2,0.3c-0.1,0-0.2,0-0.3-0.2l-3.3-4.1L6.3,20C6.2,20,6.1,20,6,20c-0.1-0.1-0.1-0.2-0.1-0.3l1.2-5.1l-4.7-2.3
		c-0.1-0.1-0.2-0.2-0.2-0.3c0-0.1,0.1-0.2,0.2-0.2l4.8-2.3L6.1,4.3C6,4.1,6,4,6.1,3.9c0.1-0.1,0.2-0.1,0.3,0L11.2,6.2z"/>
</g>
<g id="Layer_2" class="st0">
	<g class="st2">
		<path class="st3" d="M12,2.2c5.4,0,9.8,4.4,9.8,9.8s-4.4,9.8-9.8,9.8S2.2,17.4,2.2,12S6.6,2.2,12,2.2 M12,2C6.5,2,2,6.5,2,12
			s4.5,10,10,10s10-4.5,10-10S17.5,2,12,2L12,2z"/>
	</g>
	<g class="st2">
		<path class="st3" d="M20,3.2c0.4,0,0.8,0.3,0.8,0.8v16c0,0.4-0.3,0.8-0.8,0.8H4c-0.4,0-0.8-0.3-0.8-0.8V4c0-0.4,0.3-0.8,0.8-0.8
			H20 M20,3H4C3.5,3,3,3.5,3,4v16c0,0.5,0.5,1,1,1h16c0.5,0,1-0.5,1-1V4C21,3.5,20.5,3,20,3L20,3z"/>
	</g>
	<g class="st2">
		<path class="st3" d="M19,2.2c0.4,0,0.8,0.3,0.8,0.8v18c0,0.4-0.3,0.8-0.8,0.8H5c-0.4,0-0.8-0.3-0.8-0.8V3c0-0.4,0.3-0.8,0.8-0.8
			H19 M19,2H5C4.4,2,4,2.5,4,3v18c0,0.5,0.4,1,1,1h14c0.5,0,1-0.5,1-1V3C20,2.5,19.5,2,19,2L19,2z"/>
	</g>
	<g class="st2">
		<path class="st3" d="M21,4.2c0.4,0,0.8,0.3,0.8,0.8v14c0,0.4-0.3,0.8-0.8,0.8H3c-0.4,0-0.8-0.3-0.8-0.8V5c0-0.4,0.3-0.8,0.8-0.8
			H21 M21,4H3C2.5,4,2,4.4,2,5v14c0,0.5,0.5,1,1,1h18c0.5,0,1-0.5,1-1V5C22,4.4,21.5,4,21,4L21,4z"/>
	</g>
	<g class="st2">
		<path class="st3" d="M12,7.2c2.6,0,4.8,2.1,4.8,4.8s-2.1,4.8-4.8,4.8S7.2,14.6,7.2,12S9.4,7.2,12,7.2 M12,7c-2.8,0-5,2.2-5,5
			s2.2,5,5,5s5-2.2,5-5S14.8,7,12,7L12,7z"/>
	</g>
</g>
</svg>
