<?xml version="1.0" encoding="utf-8"?>
<!-- Generator: Adobe Illustrator 25.2.1, SVG Export Plug-In . SVG Version: 6.00 Build 0)  -->
<svg version="1.1" id="Layer_3_copy_2" xmlns="http://www.w3.org/2000/svg" xmlns:xlink="http://www.w3.org/1999/xlink" x="0px"
	 y="0px" viewBox="0 0 24 24" style="enable-background:new 0 0 24 24;" xml:space="preserve">
<style type="text/css">
	.st0{fill:none;}
</style>
<path class="st0" d="M1-1.4h22v22H1V-1.4z"/>
<g>
	<path d="M4.8,5l1.8,1.9C6.4,7.2,6.1,7.6,5.9,8C3.1,8.3,1,10.6,1,13.4c0,3,2.5,5.5,5.5,5.5h11.7l1.4,1.5l0.7-0.7L5.5,4.3L4.8,5z
		 M6.5,17.9c-2.5,0-4.5-2-4.5-4.5C2,11.1,3.7,9.2,6,9l0.5-0.1l0.2-0.5C6.9,8.1,7,7.8,7.2,7.6l9.9,10.3H6.5z"/>
	<path d="M18.7,9.8c-0.6-3.2-3.4-5.5-6.7-5.5c-1.5,0-2.8,0.5-3.9,1.2l0.7,0.7c0.9-0.6,2-1,3.2-1c2.8,0,5.2,2,5.8,4.7l0.1,0.7
		l0.8,0.1c1.9,0.1,3.3,1.7,3.3,3.5c0,1.5-0.9,2.8-2.3,3.3l0.7,0.8c1.5-0.8,2.5-2.3,2.5-4.1C23,11.9,21.1,10,18.7,9.8z"/>
</g>
</svg>
