<svg height="24" viewBox="0 0 24 24" width="24" xmlns="http://www.w3.org/2000/svg"><g fill="#000" fill-rule="nonzero"><g transform="translate(7 4.5)"><path d="m4.5 3c0 .27614237-.22385763.5-.5.5s-.5-.22385763-.5-.5c0-.82842712-.67157288-1.5-1.5-1.5s-1.5.67157288-1.5 1.5.67157288 1.5 1.5 1.5c1.38071187 0 2.5 1.11928813 2.5 2.5s-1.11928813 2.5-2.5 2.5-2.5-1.11928813-2.5-2.5c0-.27614237.22385762-.5.5-.5s.5.22385763.5.5c0 .82842712.67157288 1.5 1.5 1.5s1.5-.67157288 1.5-1.5-.67157288-1.5-1.5-1.5c-1.38071187 0-2.5-1.11928813-2.5-2.5s1.11928813-2.5 2.5-2.5 2.5 1.11928813 2.5 2.5z"/><path d="m1.5 0c0-.27614238.22385763-.5.5-.5s.5.22385762.5.5v1c0 .27614237-.22385763.5-.5.5s-.5-.22385763-.5-.5z"/><path d="m1.5 9c0-.27614237.22385763-.5.5-.5s.5.22385763.5.5v1c0 .2761424-.22385763.5-.5.5s-.5-.2238576-.5-.5z"/></g><path d="m11.2273731 18.4951262c.1686929.5390395.4261883 1.0388277.7553529 1.4822314l-1.99969377-.9773576-1.99609375 1-1.98693848-1-2 1v-18h16v11.9995125c-.2844403-.3785878-.6213763-.7154834-1-.9998787v-9.9996338h-14v15.381966l1.00146895-.5007345 1.98650098.9997798 1.98958405-.9967387z"/><path d="m16 21c2.209139 0 4-1.790861 4-4s-1.790861-4-4-4-4 1.790861-4 4 1.790861 4 4 4zm0 1c-2.7614237 0-5-2.2385763-5-5s2.2385763-5 5-5 5 2.2385763 5 5-2.2385763 5-5 5z"/><path d="m15.5 14h1v3h-1z"/><path d="m16.5 16h1v3h-1z" transform="matrix(0 1 -1 0 34.5 .5)"/><rect height="1" rx=".5" width="4" x="13" y="5"/><rect height="1" rx=".5" width="4" x="13" y="7"/><rect height="1" rx=".5" width="4" x="13" y="9"/></g></svg>