<svg height="24" viewBox="0 0 24 24" width="24" xmlns="http://www.w3.org/2000/svg"><g fill="#000" fill-rule="nonzero"><path d="m19 4h-14v15.381966l1.00146895-.5007345 1.98650098.9997798 1.98958405-.9967387 2.04316692.9986053 1.9749279-1.0020197 2.0117436 1.0011058 1.9915385-1.0005325 1.0010691.5005345zm1 0v17l-2-1-1.9904785 1-2.0095215-1-1.9709473 1-2.04602047-1-1.99609375 1-1.98693848-1-2 1v-17h-2v-1h20v1z"/><path d="m7.5 7c-.27614237 0-.5-.22385763-.5-.5s.22385763-.5.5-.5h4.9406738c.2761424 0 .5.22385763.5.5s-.2238576.5-.5.5z"/><path d="m15.5 7c-.2761424 0-.5-.22385763-.5-.5s.2238576-.5.5-.5h1.0006104c.2761423 0 .5.22385763.5.5s-.2238577.5-.5.5z"/><path d="m15.5 9.5c-.2761424 0-.5-.22385763-.5-.5s.2238576-.5.5-.5h1.0006104c.2761423 0 .5.22385763.5.5s-.2238577.5-.5.5z"/><path d="m15.5 13.5c-.2761424 0-.5-.2238576-.5-.5s.2238576-.5.5-.5h1.0006104c.2761423 0 .5.2238576.5.5s-.2238577.5-.5.5z"/><path d="m15.5 16c-.2761424 0-.5-.2238576-.5-.5s.2238576-.5.5-.5h1.0006104c.2761423 0 .5.2238576.5.5s-.2238577.5-.5.5z"/><path d="m7.5 13.5c-.27614237 0-.5-.2238576-.5-.5s.22385763-.5.5-.5h4.9406738c.2761424 0 .5.2238576.5.5s-.2238576.5-.5.5z"/><path d="m7.5 9.5c-.27614237 0-.5-.22385763-.5-.5s.22385763-.5.5-.5h3.5c.2761424 0 .5.22385763.5.5s-.2238576.5-.5.5z"/><path d="m7.5 16c-.27614237 0-.5-.2238576-.5-.5s.22385763-.5.5-.5h3.5c.2761424 0 .5.2238576.5.5s-.2238576.5-.5.5z"/></g></svg>