<svg height="24" viewBox="0 0 24 24" width="24" xmlns="http://www.w3.org/2000/svg"><g fill="#000" fill-rule="nonzero"><path d="m19 4h-14v15.381966l1.00146895-.5007345 1.98650098.9997798 1.98958405-.9967387 2.04316692.9986053 1.9749279-1.0020197 2.0117436 1.0011058 1.9915385-1.0005325 1.0010691.5005345zm-15-1h16v18l-2-1-1.9904785 1-2.0095215-1-1.9709473 1-2.04602047-1-1.99609375 1-1.98693848-1-2 1z"/><path d="m6.5 7c-.27614237 0-.5-.22385763-.5-.5s.22385763-.5.5-.5h4.9406738c.2761424 0 .5.22385763.5.5s-.2238576.5-.5.5z"/><path d="m6.5 10c-.27614237 0-.5-.22385763-.5-.5s.22385763-.5.5-.5h3.9406738c.2761424 0 .5.22385763.5.5s-.2238576.5-.5.5z"/><path d="m6.5 13c-.27614237 0-.5-.2238576-.5-.5s.22385763-.5.5-.5h4.9406738c.2761424 0 .5.2238576.5.5s-.2238576.5-.5.5z"/><path d="m6.5 16c-.27614237 0-.5-.2238576-.5-.5s.22385763-.5.5-.5h2.94067383c.27614237 0 .5.2238576.5.5s-.22385763.5-.5.5z"/><g transform="translate(12.5 4)"><path d="m5.5 5c0 .27614237-.22385763.5-.5.5s-.5-.22385763-.5-.5c0-.82842712-.67157288-1.5-1.5-1.5s-1.5.67157288-1.5 1.5c0 1.01796517.38070722 1.40055344 1.72221852 2.0661156l.01385562.00687402c1.64269598.81497043 2.26392586 1.43536484 2.26392586 2.92701038 0 1.3807119-1.11928813 2.5-2.5 2.5s-2.5-1.1192881-2.5-2.5c0-.27614237.22385763-.5.5-.5s.5.22385763.5.5c0 .8284271.67157288 1.5 1.5 1.5s1.5-.6715729 1.5-1.5c0-.99566688-.37407051-1.36923432-1.70835498-2.03119636l-.01386354-.00687795c-1.64930348-.81826667-2.27778148-1.44984994-2.27778148-2.96192569 0-1.38071187 1.11928813-2.5 2.5-2.5s2.5 1.11928813 2.5 2.5z"/><path d="m3.5 3c0 .27614237-.22385763.5-.5.5s-.5-.22385763-.5-.5v-1.50851004c0-.27614238.22385763-.5.5-.5s.5.22385762.5.5z"/><path d="m2.5 12c0-.2761424.22385763-.5.5-.5s.5.2238576.5.5v1.5c0 .2761424-.22385763.5-.5.5s-.5-.2238576-.5-.5z"/></g></g></svg>