<svg height="24" viewBox="0 0 24 24" width="24" xmlns="http://www.w3.org/2000/svg"><path d="m9.5 17.5h1v.0237335h-1zm0 .0237335v-6.5237335h1v6.5237335zm1-.0237335c0 .8284271.6715729 1.5 1.5 1.5s1.5-.6715729 1.5-1.5h1c0 1.3807119-1.1192881 2.5-2.5 2.5s-2.5-1.1192881-2.5-2.5zm4 0v.0237335h-1v-12.07951963h1v12.07951963h-1v-.0237335zm0-12h-1c0-1.38071187-1.1192881-2.5-2.5-2.5-1.38071187 0-2.5 1.11928813-2.5 2.5h-1c0-1.93299662 1.56700338-3.5 3.5-3.5 1.9329966 0 3.5 1.56700338 3.5 3.5h-1v-.05578613h1zm-6 12.0237335h-1v-.0237335h1v.0237335h-1v-12.04887998h1zm0-.0237335c0 1.9329966 1.5670034 3.5 3.5 3.5s3.5-1.5670034 3.5-3.5h1v.0237335h-1v-9.5237335h1v9.5237335h-1v-.0237335h1c0 2.4852814-2.0147186 4.5-4.5 4.5-2.48528137 0-4.5-2.0147186-4.5-4.5z"/></svg>