<svg enable-background="new 0 0 24 24" viewBox="0 0 24 24" xmlns="http://www.w3.org/2000/svg"><path d="m12 19.45c-.27.01-.51-.21-.52-.48 0 0-.1-2.45-.17-3.88-.06-1.12-1.61-2-3.53-2s-3.47.88-3.53 2c-.08 1.43-.17 3.88-.17 3.88-.01.27-.24.49-.52.48s-.49-.24-.48-.52c0 0 .1-2.46.17-3.89.09-1.68 2.04-2.95 4.53-2.95s4.44 1.27 4.53 2.95c.08 1.43.17 3.89.17 3.89.01.27-.21.51-.48.52z"/><path d="m7.78 11.36c-1.98 0-3.59-1.61-3.59-3.59s1.61-3.59 3.59-3.59 3.59 1.61 3.59 3.59-1.61 3.59-3.59 3.59zm0-6.19c-1.43 0-2.59 1.16-2.59 2.59s1.16 2.59 2.59 2.59 2.59-1.16 2.59-2.59-1.16-2.59-2.59-2.59z"/><path d="m20.51 19.45c-.27.01-.51-.21-.52-.48 0 0-.1-2.45-.17-3.88-.06-1.12-1.61-2-3.53-2-1.02 0-2 .26-2.67.71-.23.15-.54.09-.69-.14s-.09-.54.14-.69c.84-.57 1.99-.88 3.23-.88 2.49 0 4.44 1.27 4.53 2.95.08 1.43.17 3.89.17 3.89 0 .27-.22.51-.49.52z"/><path d="m16.29 11.36c-1.98 0-3.59-1.61-3.59-3.59s1.61-3.59 3.59-3.59 3.59 1.61 3.59 3.59-1.61 3.59-3.59 3.59zm0-6.19c-1.43 0-2.59 1.16-2.59 2.59s1.16 2.59 2.59 2.59 2.59-1.16 2.59-2.59-1.16-2.59-2.59-2.59z"/></svg>