<svg height="24" viewBox="0 0 24 24" width="24" xmlns="http://www.w3.org/2000/svg"><g fill="#000" fill-rule="evenodd"><path d="m15.400346 16.19466c-.3067093.0511182-.5623003-.1022364-.7667732-.3578275h1.0223642c0 .0511182.0511183.0511182.0511183.1022364-.1022365.1022364-.2044729.2555911-.3067093.2555911m-4.4984026 0c.3067093-.8690096.6134186-1.7891374.9201278-2.658147.4600639.6645367.8690096 1.2779553 1.3290735 1.942492-.7156549.2555911-1.4824281.4600639-2.2492013.715655m.7667732-5.8274761v1.0734825c-.2555911-.4089457-.2555911-.8178914 0-1.0734825m-3.01597445 8.4345048c-.25559105-.1533546-.25559105-.3578274-.10223642-.5111821.25559106-.255591.56230032-.5111821.86900959-.7667731.05111821.0511182.05111821.0511182.10223642.1022364-.30670927.4089457-.56230032.8178914-.86900959 1.1757188m7.05431315-3.7316294c-.4600639-.0511182-.9712461 0-1.4824282 0-.2044728 0-.3067092 0-.4089456-.1533546-.5111822-.715655-.9712461-1.4313099-1.43131-2.1980831-.0511182-.1022364-.0511182-.255591-.0511182-.4089457.0511182-.5111821.1533547-.971246.2044729-1.4313099-.0511182-.3067092-.0511182-.5111821-.1022364-.7156549-.1533547-.56230033-.6134186-.76677317-1.1246007-.61341854-.4600639.15335463-.7667731.56230034-.6645367 1.22683704.1022364.5623003.3067092 1.1246007.4089457 1.686901.0511182.1533546.0511182.3067092 0 .4600958-.3578275 1.1245687-.7667732 2.1980511-1.17571889 3.2715336-.05111821.1022364-.20447284.255591-.30670926.3067412-.4600639.3066773-.97124601.5622684-1.43130991.9200958-.25559105.1533547-.40894568.4600639-.56230032.715655-.20447284.5111821 0 1.0223642.4600639 1.3290735.35782748.255591.76677317.1533546 1.17571885-.2044729.15335463-.1533546.30670927-.3067092.40894569-.5111821.30670926-.4600639.51118214-.9201278.81789134-1.3801917.0511182-.1022364.2044729-.255591.3067093-.255591.8178914-.3067093 1.686901-.5623004 2.5047923-.8178914.2044729-.0510863.3578275 0 .5111821.1022364.3067093.2044729.6134186.4089457.971246.5623003.5623004.2044729 1.0734825 0 1.4313099-.5111821.5623004-.6134185.3067093-1.2779552-.4600638-1.3801917"/><path d="m14 8h-1v-5h.5479729-7.5479729v18h12v-12.96423585l-.0316184-.03576415zm0-1h3.0842998l-3.0842998-3.48870437zm-9-5h8.9986572l5.0013428 5.65710449v14.34289551h-14z" fill-rule="nonzero"/></g></svg>