<svg height="24" viewBox="0 0 24 24" width="24" xmlns="http://www.w3.org/2000/svg"><g fill-rule="evenodd" transform="matrix(.70710678 .70710678 -.70710678 .70710678 17.656854 3.514719)"><path d="m2.58083293 2.00427953c.2452558-.00138122.41916707-.00303828.41916707-.00427953 0-.55228475-.44771525-1-1-1s-1 .44771525-1 1c0 .00355183.14479686.00549704.35646971.00636105-.74488578.00057681-1.35646971-.0006859-1.35646971-.00636105 0-1.1045695.8954305-2 2-2s2 .8954305 2 2c0 .00006768-.64621396.00242569-1.41916707.00427953z"/><path d="m1 3v11h2v-11zm-1-1h4v13h-4z" fill-rule="nonzero"/><path d="m4.00003094 15-2.00003094 5-2-5zm-2.91246028.0073201.91198242 2.2951458.92276872-2.3014806z"/><path d="m1.75 2h1v12h-1z"/></g></svg>