<svg height="24" viewBox="0 0 24 24" width="24" xmlns="http://www.w3.org/2000/svg"><path d="m17.4801026 14.0944004c-.6888152-.6888696-2.3429086-1.7245172-3.1582408-2.1134709-.9465351-.4545602-1.2932855-.4451878-1.9633574.0374896-.5576122.4030121-.9184201.7779072-1.5603771.6373216-.6419569-.1358995-1.90712758-1.0965681-3.13481167-2.3196632-1.2276841-1.22778135-2.1835908-2.49305218-2.31947949-3.13505997-.1358887-.64669398.23897667-1.00284429.63727113-1.56050069.48263917-.67012492.49669662-1.01690285.03748654-1.96351287-.38892283-.82008295-1.4198026-2.46962121-2.11330354-3.15849089-.68881512-.68886967-.84344709-.53891164-1.22299828-.40301218 0 0-.56229805.22493703-1.1199103.5951459-.68881512.45924645-1.07305212.84351389-1.34482952 1.41991504-.26709158.57640116-.57635551 1.64953827.99807905 4.45187884 1.26985645 2.26342893 2.51628382 3.97857382 4.36718159 5.82493202l.00468582.0046862.00468582.0046862c1.85089777 1.8510443 3.56122103 3.0975704 5.82447075 4.3675274 2.8021186 1.5745593 3.8751708 1.2652708 4.4515263.9981581s.9605925-.6513802 1.4198026-1.344936c.3701795-.5576564.5950987-1.119999.5950987-1.119999.1358887-.3795813.2905207-.5342255-.4029802-1.2230952z" fill-rule="evenodd" transform="translate(3 3)"/></svg>