<svg height="24" viewBox="0 0 24 24" width="24" xmlns="http://www.w3.org/2000/svg"><g fill="#000" fill-rule="nonzero"><g transform="matrix(.69465837 .7193398 -.7193398 .69465837 12.035378 8)"><path d="m.5 4c-.27614237 0-.5-.22385763-.5-.5s.22385763-.5.5-.5h5c.27614237 0 .5.22385763.5.5s-.22385763.5-.5.5z"/><path d="m.5 7c-.27614237 0-.5-.22385763-.5-.5s.22385763-.5.5-.5h5c.27614237 0 .5.22385763.5.5s-.22385763.5-.5.5z"/><path d="m.5 1c-.27614237 0-.5-.22385762-.5-.5 0-.27614237.22385763-.5.5-.5h2c.27614237 0 .5.22385763.5.5 0 .27614238-.22385763.5-.5.5z"/></g><path d="m3.88756137 15.158488 14.14296443.0007847 4.6568313-4.6568312-4.6710529-4.67105295-14.12801504.01326058zm-.99919415-10.31290078 15.54176168-.01458753 5.6714418 5.67144181-5.6568543 5.6568542-15.55721235-.0008631z" transform="matrix(.70710678 -.70710678 .70710678 .70710678 -3.468732 12.616036)"/><circle cx="18" cy="6" r="1"/></g></svg>