<svg height="24" viewBox="0 0 24 24" width="24" xmlns="http://www.w3.org/2000/svg"><g fill="#000" fill-rule="evenodd"><path d="m8.74072266 9.19238281c.0805664-1.58203125 1.1352539-2.84179687 3.19335934-2.84179687 1.8457032 0 3.1054688 1.14257812 3.1054688 2.65136718 0 1.14990238-.5932617 1.96289068-1.5307617 2.52685548-.9301758.5493164-1.1938477.9594726-1.1938477 1.7285156v.4760742h-1.2817383v-.6738281c-.0073242-.9667969.4614258-1.6259765 1.4648438-2.2265625.8496093-.5200195 1.1791992-.9814453 1.1791992-1.76513671 0-.90820312-.703125-1.57470703-1.7944336-1.57470703-1.105957 0-1.809082.65185547-1.88964844 1.69921875zm3.03222654 7.93945309c-.5932617 0-1.0180664-.4248047-1.0180664-1.0180664 0-.6005859.4248047-1.0253906 1.0180664-1.0253906s1.0107422.4248047 1.0107422 1.0253906c0 .5932617-.4174805 1.0180664-1.0107422 1.0180664z"/><path d="m12 21c4.9705627 0 9-4.0294373 9-9 0-4.97056275-4.0294373-9-9-9-4.97056275 0-9 4.02943725-9 9 0 4.9705627 4.02943725 9 9 9zm0 1c-5.5228475 0-10-4.4771525-10-10s4.4771525-10 10-10 10 4.4771525 10 10-4.4771525 10-10 10z" fill-rule="nonzero"/></g></svg>