<svg height="24" viewBox="0 0 24 24" width="24" xmlns="http://www.w3.org/2000/svg"><path d="m12 22c-5.5228475 0-10-4.4771525-10-10s4.4771525-10 10-10 10 4.4771525 10 10-4.4771525 10-10 10zm-3.25927734-12.80761719h1.2524414c.08056644-1.04736328.78369144-1.69921875 1.88964844-1.69921875 1.0913086 0 1.7944336.66650391 1.7944336 1.57470703 0 .78369141-.3295899 1.24511721-1.1791992 1.76513671-1.003418.600586-1.472168 1.2597656-1.4648438 2.2265625v.6738281h1.2817383v-.4760742c0-.769043.2636719-1.1791992 1.1938477-1.7285156.9375-.5639648 1.5307617-1.3769531 1.5307617-2.52685548 0-1.50878906-1.2597656-2.65136718-3.1054688-2.65136718-2.05810544 0-3.11279294 1.25976562-3.19335934 2.84179687zm3.03222654 7.93945309c.5932617 0 1.0107422-.4248047 1.0107422-1.0180664 0-.6005859-.4174805-1.0253906-1.0107422-1.0253906s-1.0180664.4248047-1.0180664 1.0253906c0 .5932617.4248047 1.0180664 1.0180664 1.0180664z"/></svg>