<svg height="24" viewBox="0 0 24 24" width="24" xmlns="http://www.w3.org/2000/svg"><g fill="#000" fill-rule="nonzero"><path d="m13.6823467 5.81801948c-.2843953-.37862367-.6212908-.71555965-.9998787-1h5.9995125c2.209139 0 4 1.79086101 4 4 0 2.20913902-1.790861 4.00000002-4 4.00000002h-7c-2.20913898 0-3.99999998-1.790861-3.99999998-4.00000002 0-.72857428.19478857-1.41165326.53512878-2h1.22876471c-.47503993.5307565-.76389349 1.23164557-.76389349 2 0 1.65685422 1.34314578 3.00000002 2.99999998 3.00000002h7c1.6568543 0 3-1.3431458 3-3.00000002 0-1.65685424-1.3431457-3-3-3z" transform="matrix(.70710678 -.70710678 .70710678 .70710678 -1.788582 13.31802)"/><path d="m10.3176533 18.1819805c.2843953.3786237.6212908.7155597.9998787 1h-5.99951252c-2.20913899 0-4-1.790861-4-4s1.79086101-4 4-4h7.00000002c2.209139 0 4 1.790861 4 4 0 .7285743-.1947886 1.4116533-.5351288 2h-1.2287647c.4750399-.5307565.7638935-1.2316455.7638935-2 0-1.6568542-1.3431458-3-3-3h-7.00000002c-1.65685424 0-3 1.3431458-3 3 0 1.6568543 1.34314576 3 3 3z" transform="matrix(.70710678 -.70710678 .70710678 .70710678 -8.152544 10.68198)"/></g></svg>