<svg height="24" viewBox="0 0 24 24" width="24" xmlns="http://www.w3.org/2000/svg"><g fill="#000" fill-rule="evenodd"><path d="m8.54726 18.4341257.35644227.1091218c.98254565.3007981 2.02591653.4567525 3.09629773.4567525 5.003333 0 9-3.3971669 9-7.5 0-4.10283307-3.996667-7.5-9-7.5-5.00333303 0-9 3.39716693-9 7.5 0 1.9753946.92448481 3.8385898 2.56388895 5.2376589l.56288496.4803665-1.22984055 2.8311512zm-5.58803148 3.5658743 1.9555114-4.5016799c-1.80130205-1.5372329-2.91473992-3.6572521-2.91473992-5.9983201 0-4.69442037 4.4771525-8.5 10-8.5s10 3.80557963 10 8.5c0 4.6944204-4.4771525 8.5-10 8.5-1.1896252 0-2.33073289-.1765692-3.38902879-.5005577z" fill-rule="nonzero"/><path d="m12 13.8655696-3.0905 2.1344304 1.1901667-3.4408286-3.0996667-2.1175542h3.8255l1.1745-3.4416172 1.1741667 3.4416172h3.8258333l-3.1003333 2.1175542 1.1901666 3.4408286z"/></g></svg>