<svg height="24" viewBox="0 0 24 24" width="24" xmlns="http://www.w3.org/2000/svg"><path d="m5 3v4c0 .55228475.44771525 1 1 1h7c.5522847 0 1-.44771525 1-1v-4h1.1675956c.5327845 0 1.0435477.2125808 1.419003.59059222l3.8324045 3.85849558c.3721416.37467517.5809969.88132553.5809969 1.40940778v10.14150442c0 1.1045695-.8954305 2-2 2h-14c-1.1045695 0-2-.8954305-2-2v-14c0-1.1045695.8954305-2 2-2zm1 9c-.55228475 0-1 .4477153-1 1v6c0 .5522847.44771525 1 1 1h8c.5522847 0 1-.4477153 1-1v-6c0-.5522847-.4477153-1-1-1zm5-9h2v3c0 .55228475-.4477153 1-1 1s-1-.44771525-1-1z" fill-rule="evenodd"/></svg>