<svg height="24" viewBox="0 0 24 24" width="24" xmlns="http://www.w3.org/2000/svg"><g fill="#000" fill-rule="nonzero"><path d="m5 4.80009585v7.18754635c0 3.061895 3.11909335 7.2312722 7 8.929821 3.8809067-1.6985488 7-5.867926 7-8.929821v-7.19494436c-2.1725696.96426564-4.7878692.78918709-6.9832069-.57060697-2.1601185 1.41141227-4.81031859 1.57419609-7.0167931.57800498zm-1 7.18754635v-8.9876422c2.13069661 1.79406492 5.4744873 2.02905273 8 0 2.5772705 1.94140625 5.8693034 1.79406492 8 0v8.9876422c0 3.3701172-3.3442383 8.1850586-8 10.0123291-4.65576172-1.8272705-8-6.6422119-8-10.0123291z"/><path d="m15.5887971 9.64696796c.1949742-.19554966.5115564-.19601614.707106-.00104193.1955497.19497421.1960162.51155637.001042.70710597l-5.3173307 5.3330242-2.7948699-2.8031168c-.19497428-.1955496-.19450789-.5121318.00104171-.707106.19554959-.1949743.51213173-.1945079.70710601.0010417l2.08672188 2.0928793z"/></g></svg>