<svg height="24" viewBox="0 0 24 24" width="24" xmlns="http://www.w3.org/2000/svg"><g fill="#000" fill-rule="nonzero"><path d="m8.54726 18.4341257.35644227.1091218c.98254565.3007981 2.02591653.4567525 3.09629773.4567525 5.003333 0 9-3.3971669 9-7.5 0-4.10283307-3.996667-7.5-9-7.5-5.00333303 0-9 3.39716693-9 7.5 0 1.9753946.92448481 3.8385898 2.56388895 5.2376589l.56288496.4803665-1.22984055 2.8311512zm-5.58803148 3.5658743 1.9555114-4.5016799c-1.80130205-1.5372329-2.91473992-3.6572521-2.91473992-5.9983201 0-4.69442037 4.4771525-8.5 10-8.5s10 3.80557963 10 8.5c0 4.6944204-4.4771525 8.5-10 8.5-1.1896252 0-2.33073289-.1765692-3.38902879-.5005577z"/><path d="m9.5 13.5454545c0 .7727273-.48104956 1.4545455-1.41690962 1.4545455h-.20116618c-.86588921 0-1.3819242-.6727273-1.3819242-1.3818182v-.8636363h.94460641v.8727272c0 .2363637.15743441.5363637.50728863.5363637.34985423 0 .5335277-.2727273.5335277-.6454546 0-.2909091-.11370262-.6363636-.34110787-.9727273l-1.04081633-1.5272727c-.41107871-.6090909-.54227405-1.09090907-.54227405-1.60909089 0-.79090909.50728863-1.40909091 1.35568513-1.40909091h.2361516c.84839651 0 1.32069971.64545455 1.32069971 1.33636364v.97272726h-.93586006v-.95454545c0-.23636363-.13994169-.53636363-.4723032-.53636363-.34985423 0-.48104957.27272727-.48104957.60909091 0 .3.00874636.61818177.34985423 1.08181817l1.0670554 1.4727273c.40233236.5545454.49854227 1.0636363.49854227 1.5636363zm2.0899582 1.4545455-.6861925-4.9v4.9h-.9037657v-7h1.3640167l.6527197 4.7506667.6694561-4.7506667h1.3138075v7h-.9037657v-5.13333333l-.7364017 5.13333333zm5.9100418-1.4545455c0 .7727273-.4810496 1.4545455-1.4169096 1.4545455h-.2011662c-.8658892 0-1.3819242-.6727273-1.3819242-1.3818182v-.8636363h.9446064v.8727272c0 .2363637.1574344.5363637.5072886.5363637.3498543 0 .5335277-.2727273.5335277-.6454546 0-.2909091-.1137026-.6363636-.3411078-.9727273l-1.0408164-1.5272727c-.4110787-.6090909-.542274-1.09090907-.542274-1.60909089 0-.79090909.5072886-1.40909091 1.3556851-1.40909091h.2361516c.8483965 0 1.3206997.64545455 1.3206997 1.33636364v.97272726h-.93586v-.95454545c0-.23636363-.1399417-.53636363-.4723032-.53636363-.3498543 0-.4810496.27272727-.4810496.60909091 0 .3.0087464.61818177.3498542 1.08181817l1.0670554 1.4727273c.4023324.5545454.4985423 1.0636363.4985423 1.5636363z"/></g></svg>