<svg enable-background="new 0 0 24 24" viewBox="0 0 24 24" xmlns="http://www.w3.org/2000/svg"><path d="m21.93 17.94c-.44-2.15-1.16-5.41-2.43-7.46l-.99-1.66c-.33-.51-.87-.8-1.44-.8-.3 0-.6.08-.88.25-.22.17-.44.33-.55.55-.25-.17-.55-.25-.86-.25s-.63.08-.9.25c-.17.11-.33.28-.44.44-.35-.35-.8-.54-1.27-.54-.28 0-.56.07-.82.21-.17.11-.33.22-.44.39l-1.3-2.15c-.22-.39-.61-.67-1.05-.78-.14-.03-.29-.05-.44-.05-.29 0-.57.07-.83.22-.77.5-1.05 1.49-.55 2.32l4.03 6.68c.06.06.06.11.06.17s-.06.11-.11.17c-.03.03-.07.04-.11.04s-.08-.01-.11-.04l-2.32-1.05c-.2-.09-.42-.13-.63-.13-.6 0-1.17.33-1.42.9-.17.39-.17.77-.06 1.16.17.39.39.66.77.83l3.37 2.21c.06 0 .06.06.11.06l5.41 1.99c.06 0 .11.06.17.06.11 0 .22-.06.28-.06l5.47-3.31c.23-.12.34-.35.28-.62zm-6.02 2.92-5.15-1.89c-.03-.02-.06-.04-.1-.05l-3.26-2.15-.07-.05-.08-.03c-.06-.03-.13-.06-.22-.24-.05-.21-.01-.33.03-.43.09-.2.31-.3.5-.3.08 0 .16.02.21.04l2.24 1.01c.18.11.39.17.6.17.31 0 .61-.12.82-.33.11-.11.4-.4.4-.87 0-.29-.08-.54-.24-.75l-3.99-6.63c-.23-.37-.07-.75.21-.95.1-.05.2-.08.31-.08.06 0 .13.01.2.03.18.05.34.16.43.31l1.47 2.53.9 1.52.94 1.58c.09.16.26.25.43.25.09 0 .17-.02.25-.07.24-.14.32-.45.18-.69l-1.46-2.46c.02-.02.19-.42.37-.54.1-.05.21-.07.32-.07.21 0 .4.1.57.25.16.15.35.44.48.67l.94 1.68c.09.16.26.26.44.26.08 0 .17-.02.24-.06.24-.14.33-.44.19-.68l-.7-1.25-.28-.5c.11-.26.33-.38.35-.4.11-.07.25-.11.39-.11.11 0 .33-.01.5.18l.42.76.52.95c.09.17.26.26.44.26.08 0 .16-.02.24-.06.24-.13.33-.44.2-.68l-.77-1.4.2-.29c.03-.04.14-.12.22-.19.11-.06.22-.09.33-.09.24 0 .46.13.58.32l1 1.67c1.18 1.9 1.88 5.09 2.24 6.83z"/><path d="m5.24 7.12-1.68.53c1.62-3.12 4.87-5.15 8.44-5.15.28 0 .5-.22.5-.5s-.22-.5-.5-.5c-3.97 0-7.59 2.27-9.36 5.76l-.55-1.75c-.08-.26-.36-.41-.62-.33-.27.08-.41.36-.33.63l1.03 3.32 3.37-1.05c.26-.08.41-.36.33-.63-.08-.26-.36-.41-.63-.33z"/></svg>