<svg enable-background="new 0 0 24 24" viewBox="0 0 24 24" xmlns="http://www.w3.org/2000/svg"><path d="m8.33 16.54h-5.23v-9.06h2.8v.74c0 .08.03.17.08.23.01.02.03.04.04.06.14.15.38.16.53.02l1.7-1.32.08-.07c.14-.15.14-.38 0-.52l-1.78-1.33c-.08-.05-.17-.08-.27-.07h-.01c-.2 0-.37.17-.37.38v.77h-3.14c-.42 0-.76.34-.76.76v9.79c0 .42.34.76.76.76h.34 5.23c.05.01.09.01.14 0 .31-.04.53-.32.49-.64-.03-.32-.32-.54-.63-.5z"/><path d="m12.57 7.51v-1.16h-1.14v1.16c-1.27.15-2.24 1.23-2.24 2.51-.01 1.41 1.12 2.55 2.53 2.56h.57c.78 0 1.41.63 1.41 1.41s-.63 1.41-1.41 1.41h-.57c-.78 0-1.41-.63-1.41-1.41v-.28h-1.14v.28c.01 1.29.98 2.37 2.26 2.52v1.16h1.14v-1.16c1.27-.15 2.24-1.23 2.24-2.51.01-1.41-1.12-2.55-2.53-2.56h-.57c-.78 0-1.41-.63-1.41-1.41s.63-1.41 1.41-1.41h.57c.78 0 1.41.63 1.41 1.41v.28h1.13v-.28c0-1.3-.97-2.38-2.25-2.52z"/><path d="m21.24 6.35h-5.57c-.05-.01-.09-.01-.14 0-.31.04-.53.32-.49.64.04.31.32.53.64.49h5.23v9.04h-2.8v-.75c0-.08-.03-.17-.08-.23-.13-.16-.36-.2-.52-.07l-1.78 1.32-.08.07c-.12.17-.08.4.08.52l1.78 1.33c.07.05.14.07.22.07h.01c.21 0 .37-.17.37-.37v-.76h3.15c.42 0 .76-.34.76-.76v-9.78c-.02-.42-.36-.76-.78-.76z"/></svg>