<svg height="24" viewBox="0 0 24 24" width="24" xmlns="http://www.w3.org/2000/svg"><path d="m16 1.50967035c-.6037466.25880063-1.2075472.43133438-1.8975472.51760126.69-.38820095 1.2075202-1.03520252 1.4662804-1.81160442-.6469003.38820095-1.3369273.64700158-2.0700809.81953533-.6037466-.64700157-1.4662803-1.03520252-2.4150674-1.03520252-1.8113477 0-3.27765498 1.46653691-3.27765498 3.27814132 0 .25880064.04315364.51760127.08625337.73326846-2.71698113-.12940032-5.17520216-1.46653691-6.77088949-3.45067508-.30188679.47446782-.43126685 1.03520252-.43126685 1.63907066 0 1.1214694.5606469 2.15667193 1.46630728 2.71740663-.51752021 0-1.03504043-.17253376-1.50943396-.43133439v.04313344c0 1.59593722 1.1212938 2.93307382 2.63072776 3.23500789-.25876011.08626687-.5606469.12940031-.86253369.12940031-.21563342 0-.43126685-.04313344-.60374663-.04313344.43126685 1.29400316 1.63878706 2.2429388 3.06196765 2.2860722-1.12126684.8626688-2.54447439 1.4234035-4.09703504 1.4234035-.25873315 0-.51752021 0-.77628032-.0431334 1.46630728.9489356 3.19137466 1.4665369 5.04584906 1.4665369 6.03773584 0 9.35849054-5.00347888 9.35849054-9.35995617v-.43133438c.6037467-.47446783 1.1643936-1.03520253 1.5956604-1.6822041" fill-rule="evenodd" transform="translate(4 5.5)"/></svg>