<svg height="24" viewBox="0 0 24 24" width="24" xmlns="http://www.w3.org/2000/svg"><path d="m20 20h-16l.08205128-.452638c0-.1234397.53333334-2.6333545 3.24102564-3.1271133 2.21538462-.4114657 2.21538462-1.0286642 2.21538462-1.399009v-.1234398c-.53333333-.5348796-.98461539-1.234397-1.23076923-2.0573283-.86153846-.288026-1.02564103-1.7692767-1.02564103-2.1807424 0-.2469051 0-.90525015.36923077-1.27556926.08205128-.08229313.16410257-.16456055.28717949-.20573283-.20512821-.9874919-.41025641-2.71567344.28717949-3.6208722.24615384-.32919825.61538461-.53493109 1.02564102-.53493109 1.88717945-1.27554358 4.22564105-1.357811 5.70256415-.2468794 1.2307692.94639676 1.6 2.55108716 1.0666666 4.40268269.0820513.04117228.1641026.1234397.2461539.20573283.4102564.41146568.4102564 1.02866416.4102564 1.27556926 0 .4114657-.2051282 1.9338887-1.0666667 2.221889-.2461538.8229313-.6974359 1.5224229-1.2307692 2.0573283v.1234654c0 .3702934 0 .9874919 2.2153846 1.3989576 2.7076923.5349054 3.2410256 3.0036994 3.2410256 3.1271648z" fill-rule="evenodd"/></svg>