<svg height="24" viewBox="0 0 24 24" width="24" xmlns="http://www.w3.org/2000/svg"><g transform="translate(3 3.5)"><path d="m10.8573178 13h5.1426822c-.2200189-.4306944-.4722956-.6791417-.7568301-.7453418-2.3015812-.5354884-2.660494-1.7777778-2.660494-2.50712254v-.50145299h.3925319c.3053026 0 1.264825-.09113961 2.4424207-.36464388-.6978345-.77492877-1.264825-1.73219373-1.264825-5.05982906 0-.95726496-.2616879-1.68660969-.7850638-2.18803419-.9595224-.86609686-2.52965-.59259259-2.52965-.59259259h-.0872293c-.6542199 0-1.17759573.18233618-1.57012763.59259259-.10047735.10501435-.18733854.21839987-.26242874.33607266-.29946013-.08127116-.61381365-.12247916-.93670873-.1240716.14712804-.30353254.33303807-.57970906.56329991-.82036821.56204905-.58742799 1.30982927-.86422544 2.20596519-.86422544h.021984c.0391024-.00528645.0852151-.01078031.1377883-.01607025.5700643-.05736012 1.194213-.02869862 1.8079305.15517782.4657122.13953246.8854906.36131969 1.257962.69804805.7118155.68196062 1.0562783 1.64200523 1.0562783 2.82347116 0 2.67478774.295568 3.64566086 1.0387566 4.47095429l.998276 1.10856202-1.453121.33749682c-.7653684.17776179-1.5450581.30251524-2.1118857.35688924.1441757.5565877.6799835 1.0094037 1.9377561 1.3020385.5801746.134984 1.014391.5626092 1.3410809 1.2021159l.6540544 1.2803335h-4.4067719c-.3835232-.3777683-.9404178-.7005782-1.7473337-.810555h.0000319c-.1546318-.021078-.2963843-.0443949-.4263293-.069445z"/><path d="m12.7048745 15.129798c-.2704036-.57405-.7388449-.9581014-1.5562891-1.0695158-1.1467299-.1563116-1.89431733-.455126-2.32494272-.9144047l-.00681443-.0073089c-.35458905-.3825524-.42670415-.7061436-.42662188-1.2249951v-.4986236l.29256913-.2928375c.36827054-.3686084.66032874-.8571493.84994984-1.43307786l.14748743-.44795768.43946373-.17114402c.0253134-.00985801.0939216-.09165134.1875459-.37948963.0861725-.2648659.1406548-.61579819.1406548-.74869954 0-.12288344-.0204789-.31786076-.0550563-.46767175-.0243375-.10546162-.0498727-.16618783-.0634713-.18469403l-.2749766-.37421476.1084832-.45153098c.1762801-.73371657.1857839-1.38170623.0405169-1.93523767-.1403705-.53482509-.42616006-.96258915-.82782778-1.25320267-.89789324-.64956911-2.28836999-.57048249-3.57878554.28803209l-.21220858.14118256-.25389786.02238026c-.15440808.01361057-.28010747.08446623-.39861694.23749921-.3463344.44725529-.4737466 1.40498434-.25356321 2.49816215l.09000176.44684534-.27824752.36103932c-.00501415.00650609-.02646307.05638365-.04972394.1626295-.03572623.16326393-.0559573.38002394-.0559573.50878143 0 .13282363.05450193.48383521.1406638.74872739.09334686.28694617.16225789.36946338.18793262.37959836l.41645178.16439241.15474624.4201316c.17049217.46288127.51335736.95095827 1.03437394 1.44772337l.30993782.2955114v.5077113c0 .4720672-.15503775.8991138-.55517573 1.2690938-.47457456.4389496-1.25363485.7376286-2.40877098.8861888-1.00313291.129044-1.58052115.5386863-1.9037846 1.1148959-.0612747.109239-.10988403.2170915-.14771236.3195966h11.22874748c-.0336653-.1173991-.0786027-.2413685-.1370817-.3655166zm1.2184646 1.3655166h-13.42334866v-.4499055c0-.0681607.01092744-.6853025.38876814-1.3589074.35219469-.6277788 1.09752213-1.4180057 2.64835753-1.6175066 1.13068672-.1454159 1.63411327-.4220114 1.85734513-.6284858.20637876-.1908242.23419115-.377535.23419115-.5349698v-.0794726c-.62512566-.5960283-1.05527788-1.2084461-1.28268319-1.825845-.27793274-.10971264-.5714761-.38489411-.77170619-1.00039695-.14333097-.44065028-.18971682-.90315312-.18971682-1.05808128 0-.13416824.01666195-.43734027.07907257-.72254821.05610266-.2562533.13918938-.43557278.23454159-.55929678-.27143362-1.3476276-.10860531-2.59524764.44321416-3.30786579.28656637-.37004726.66507611-.58291682 1.10147257-.62138374 1.61346903-1.07344234 3.45380177-1.18084121 4.7188354-.26566919.59269382.4288242 1.01077172 1.05454632 1.20893102 1.80955199.1895893.72241966.1775469 1.53626654-.0354266 2.42270888.101469.13808885.1790443.32238942.2320248.55196976.0595752.2581172.0806655.5343913.0806655.69253308 0 .15492816-.046354.617431-.1897168 1.05808128-.201154.61842722-.4965133.8932552-.775593 1.00193955-.2371858.720395-.61027961 1.3446068-1.09236103 1.8271304v.0846786c-.00003186.2009471-.00006372.3745142.16286018.548242.1822938.1944234.63054155.4576824 1.73058055.6076295 1.3743717.1873214 2.023423.9921059 2.3258867 1.6342174.3200814.6795179.3180425 1.3189622.3178513 1.345828z"/></g></svg>