<svg height="24" viewBox="0 0 24 24" width="24" xmlns="http://www.w3.org/2000/svg"><path d="m18.5610488 19c-.048152-.08793-.1012509-.1754747-.1593283-.2615818-.4417649-.6549716-1.0837296-1.11487-1.9894568-1.2938629-1.0649693-.1977979-1.7967938-.4642231-2.2813321-.8354085-.5840498-.4474171-.7514444-.9261529-.7514444-1.5467349v-.5368172l.2918534-.2927136c.4506524-.4519808.7949229-1.0162274.9808574-1.6378358l.1487453-.4972793.4922723-.1645597c.1262949-.0422186.3837075-.8000713.3837075-1.2734771 0-.2096173-.0126908-.3370022-.0529613-.4521927-.0196928-.0563299-.0418112-.093611-.0654417-.1173111-.0382909-.0384037-.0531854-.0514737.0135017-.018011l-.7423212-.37248722.2298808-.79808663c.431328-1.4974594.1519514-2.66628919-.7068564-3.32673825-1.1211478-.84331982-2.9987942-.7664613-4.54145826.27622447l-.25373159.17149705h-.3062531c-.07666833 0-.15640577.04233984-.23349482.14526246-.33874198.43965163-.35615897 1.57509272-.1002268 2.80715607l.18069597.86987454-.84255034.28185401c.06990921-.0233864.10406092-.0428618.10806029-.0425475-.00862715.0151814-.02345701.0482142-.03905133.1078942-.03271002.1251823-.04266374.258699-.04266374.4676116 0 .496105.22658174 1.1935164.34270732 1.232339l.49225169.1645676.14874047.4972629c.18593926.6216245.53021799 1.1858899.98084044 1.6378188l.2918703.2927166v.5368056c0 .6205463-.1673355 1.0992249-.75126158 1.5466414-.48454111.3712656-1.2164159.6377314-2.28472723.8361445-.90878388.1657205-1.54476096.6184777-1.98435626 1.275016-.07046992.1052473-.13365656.212876-.18960405.3209584zm1.4389512 1h-16l.08205128-.452638c0-.1234397.53333334-2.6333545 3.24102564-3.1271133 2.21538462-.4114657 2.21538462-1.0286642 2.21538462-1.399009v-.1234398c-.53333333-.5348796-.98461539-1.234397-1.23076923-2.0573283-.86153846-.288026-1.02564103-1.7692767-1.02564103-2.1807424 0-.2469051 0-.90525015.36923077-1.27556926.08205128-.08229313.16410257-.16456055.28717949-.20573283-.20512821-.9874919-.41025641-2.71567344.28717949-3.6208722.24615384-.32919825.61538461-.53493109 1.02564102-.53493109 1.88717945-1.27554358 4.22564105-1.357811 5.70256415-.2468794 1.2307692.94639676 1.6 2.55108716 1.0666666 4.40268269.0820513.04117228.1641026.1234397.2461539.20573283.4102564.41146568.4102564 1.02866416.4102564 1.27556926 0 .4114657-.2051282 1.9338887-1.0666667 2.221889-.2461538.8229313-.6974359 1.5224229-1.2307692 2.0573283v.1234654c0 .3702934 0 .9874919 2.2153846 1.3989576 2.7076923.5349054 3.2410256 3.0036994 3.2410256 3.1271648z"/></svg>