<svg height="24" viewBox="0 0 24 24" width="24" xmlns="http://www.w3.org/2000/svg"><g fill="#000" fill-rule="nonzero"><path d="m14.2308845 16.153233c-.459652-.1512032-.8208321-.3302629-1.0999529-.5440862-.5840498-.4474171-.7514444-.9261529-.7514444-1.5467349v-.5368172l.2918534-.2927136c.4506524-.4519808.7949229-1.0162274.9808574-1.6378358l.1487453-.4972793.4922723-.1645597c.1262949-.0422186.3837075-.8000713.3837075-1.27347706 0-.20961738-.0126908-.33700228-.0529613-.45219271-.0196928-.05632993-.0418112-.09361099-.0654417-.11731116-.0382909-.03840368-.0531854-.05147366.0135017-.01801094l-.7423212-.37248725.2298808-.79808663c.431328-1.4974594.1519514-2.66628919-.7068564-3.32673825-1.1211478-.84331982-2.9987942-.7664613-4.54145826.27622447l-.25373159.17149705h-.3062531c-.07666833 0-.15640577.04233984-.23349482.14526246-.33874198.43965163-.35615897 1.57509272-.1002268 2.80715607l.18069597.86987454-.84255034.28185399c.06990921-.02338636.10406092-.04286181.10806029-.04254752-.00862715.01518143-.02345701.04821421-.03905133.1078942-.03271002.12518232-.04266374.25869903-.04266374.46761168 0 .49610496.22658174 1.19351636.34270732 1.23233896l.49225169.1645676.14874047.4972629c.18593926.6216245.53021799 1.1858899.98084041 1.6378188l.29187037.2927166v.5368056c0 .6205463-.1673355 1.0992249-.75126162 1.5466414-.48454111.3712656-1.2164159.6377314-2.28472723.8361445-.90878388.1657205-1.54476096.6184777-1.98435626 1.275016-.07046992.1052473-.13365656.212876-.18960405.3209584h8.67148762v1h-10l.08205128-.452638c0-.1234397.53333334-2.6333545 3.24102564-3.1271133 2.21538462-.4114657 2.21538462-1.0286642 2.21538462-1.399009v-.1234398c-.53333333-.5348796-.98461539-1.234397-1.23076923-2.0573283-.86153846-.288026-1.02564103-1.7692767-1.02564103-2.18074236 0-.24690512 0-.90525019.36923077-1.2755693.08205128-.08229313.16410257-.16456055.28717949-.20573283-.20512821-.9874919-.41025641-2.71567344.28717949-3.6208722.24615384-.32919825.61538461-.53493109 1.02564102-.53493109 1.88717945-1.27554358 4.22564105-1.357811 5.70256415-.2468794 1.2307692.94639676 1.6 2.55108716 1.0666666 4.40268269.0820513.04117228.1641026.1234397.2461539.20573283.4102564.41146568.4102564 1.02866418.4102564 1.2755693 0 .41146566-.2051282 1.93388866-1.0666667 2.22188896-.2461538.8229313-.6974359 1.5224229-1.2307692 2.0573283v.1234654c0 .3702934 0 .9874919 2.2153846 1.3989576.5572097.1100769 1.0223385.3020513 1.4096874.5386305h-2.0045592c-.2725407 0-.5323489.054514-.7691155.153233z"/><g transform="translate(13 11)"><path d="m2 6c-.55228475 0-1 .44771525-1 1v2c0 .55228475.44771525 1 1 1h5c.55228475 0 1-.44771525 1-1v-2c0-.55228475-.44771525-1-1-1zm0-1h5c1.1045695 0 2 .8954305 2 2v2c0 1.1045695-.8954305 2-2 2h-5c-1.1045695 0-2-.8954305-2-2v-2c0-1.1045695.8954305-2 2-2z"/><path d="m6 2.5c0-.82842712-.67157288-1.5-1.5-1.5s-1.5.67157288-1.5 1.5h-1c0-1.38071187 1.11928813-2.5 2.5-2.5s2.5 1.11928813 2.5 2.5z"/><path d="m2 2.5h1v3h-1z"/><path d="m6 2.5h1v3h-1z"/><path d="m4 7h1v2h-1z"/></g></g></svg>