<svg height="24" viewBox="0 0 24 24" width="24" xmlns="http://www.w3.org/2000/svg"><path d="m12 22c-5.5228475 0-10-4.4771525-10-10s4.4771525-10 10-10 10 4.4771525 10 10-4.4771525 10-10 10zm-.0075-4.745c.2600013 0 .4824991-.0924991.6675-.2775s.2775-.4074987.2775-.6675-.0924991-.4824991-.2775-.6675-.4074987-.2775-.6675-.2775-.4799991.0924991-.66.2775-.27.4074987-.27.6675.0899991.4824991.27.6675.3999987.2775.66.2775zm-.525-6.45v3.165c0 .5000025.1799982.75.54.75.0900004 0 .1649997-.0049999.225-.015.1700009-.0300001.2749998-.1849986.315-.465.01-.0800004.015-.2949982.015-.645v-2.82l.045-1.62c.0200001-.83000415.0349999-1.26999975.045-1.32.0100001-.09000045.015-.18999945.015-.3 0-.5800029-.2149978-.87-.645-.87-.4200021 0-.63.2699973-.63.81 0 .11000055.005.2049996.015.285.0200001.5200026.03.98499795.03 1.395z"/></svg>