<svg height="24" viewBox="0 0 24 24" width="24" xmlns="http://www.w3.org/2000/svg"><g fill="#000" fill-rule="evenodd"><path d="m3.69910266 19h16.60097104l-8.3046272-14.94087393zm8.29590764-17 10.0049897 18h-20z" fill-rule="nonzero"/><path d="m11.9925 18.255c-.2600013 0-.4799991-.0924991-.66-.2775s-.27-.4074987-.27-.6675.0899991-.4824991.27-.6675.3999987-.2775.66-.2775.4824991.0924991.6675.2775.2775.4074987.2775.6675-.0924991.4824991-.2775.6675-.4074987.2775-.6675.2775zm-.525-6.45-.03-1.65c0-.41000205-.0099999-.8749974-.03-1.395-.01-.0800004-.015-.17499945-.015-.285 0-.5400027.2099979-.81.63-.81.4300022 0 .645.2899971.645.87 0 .11000055-.0049999.20999955-.015.3-.0100001.05000025-.0249999.48999585-.045 1.32l-.045 1.62v2.82c0 .3500017-.005.5649996-.015.645-.0400002.2800014-.1449991.4349999-.315.465-.0600003.0100001-.1349996.015-.225.015-.3600018 0-.54-.2499975-.54-.75z"/></g></svg>