<svg height="24" viewBox="0 0 24 24" width="24" xmlns="http://www.w3.org/2000/svg"><g fill="#000" fill-rule="nonzero"><path d="m12 17.0114389c2.8183833 0 5.7142662-1.6427452 8.6829954-5.0104227-2.9723267-3.361257-5.870879-5.00102164-8.6911641-5.00102164-2.81981666 0-5.71309772 1.63931187-8.67572678 5.00000054 2.96904396 3.3683666 5.8652274 5.0114438 8.68389548 5.0114438zm-10-5.0114389c3.32652478-4.00000363 6.65713521-6.00000544 9.9918313-6.00000544 3.3346961 0 6.6707523 2.00000181 10.0081687 6.00000544-3.3333333 4.0076259-6.6666667 6.0114389-10 6.0114389-3.33333333 0-6.66666667-2.003813-10-6.0114389z"/><path d="m12 15c1.6568542 0 3-1.3431458 3-3s-1.3431458-3-3-3-3 1.3431458-3 3 1.3431458 3 3 3zm0 1c-2.209139 0-4-1.790861-4-4s1.790861-4 4-4 4 1.790861 4 4-1.790861 4-4 4z"/><path d="m11 12c0 .5522847.4477153 1 1 1v1c-1.1045695 0-2-.8954305-2-2z"/></g></svg>