<svg height="24" viewBox="0 0 24 24" width="24" xmlns="http://www.w3.org/2000/svg"><g fill="#000" fill-rule="nonzero"><g transform="translate(4 3)"><path d="m0 0h1v14.5h-1z"/><path d="m13 0h1v14h-1z"/><path d="m0 0h14v1h-14z"/><path d="m6 14.5h1c0 1.9329966-1.56700338 3.5-3.5 3.5s-3.5-1.5670034-3.5-3.5h1c0 1.3807119 1.11928813 2.5 2.5 2.5s2.5-1.1192881 2.5-2.5z"/><path d="m16 14.5h1c0 1.9329966-1.5670034 3.5-3.5 3.5v-1c1.3807119 0 2.5-1.1192881 2.5-2.5z"/><path d="m3.5 17h10v1h-10z"/><path d="m6 13.5h11v1h-11z"/></g><path d="m6.5 13c-.27614237 0-.5-.2238576-.5-.5s.22385763-.5.5-.5h2.5c.27614237 0 .5.2238576.5.5s-.22385763.5-.5.5zm6 0c-.2761424 0-.5-.2238576-.5-.5s.2238576-.5.5-.5h1.5c.2761424 0 .5.2238576.5.5s-.2238576.5-.5.5z"/><path d="m6.5 15c-.27614237 0-.5-.2238576-.5-.5s.22385763-.5.5-.5h3.5c.2761424 0 .5.2238576.5.5s-.2238576.5-.5.5z"/><path d="m12.5 15c-.2761424 0-.5-.2238576-.5-.5s.2238576-.5.5-.5h2.9977464c.2761424 0 .5.2238576.5.5s-.2238576.5-.5.5z"/><path d="m11 6c-1.46475861 0-2.70427522.64479392-3.76983805 2.0022296 1.06055634 1.36047951 2.29972958 2.0065985 3.76983805 2.0065985 1.4701085 0 2.7092817-.64611899 3.7698381-2.0065985-1.0655629-1.35743568-2.3050795-2.0022296-3.7698381-2.0022296zm5 2c-1.3210938 2.0058854-2.9877604 3.0088281-5 3.0088281-2.01223958 0-3.67890625-1.0029427-5-3.0088281 1.32822917-2 2.99489583-3 5-3 2.0051042 0 3.6717708 1 5 3z"/><circle cx="11" cy="8" r="1.5"/></g></svg>