<svg height="24" viewBox="0 0 24 24" width="24" xmlns="http://www.w3.org/2000/svg"><g fill="#000" fill-rule="nonzero"><path d="m2 12c3.32652478-4.00000363 6.65713521-6.00000544 9.9918313-6.00000544 3.3346961 0 6.6707523 2.00000181 10.0081687 6.00000544-3.3333333 4.0076259-6.6666667 6.0114389-10 6.0114389-3.33333333 0-6.66666667-2.003813-10-6.0114389zm10 4c2.209139 0 4-1.790861 4-4s-1.790861-4-4-4-4 1.790861-4 4 1.790861 4 4 4z"/><path d="m10.5 12c0 .8284271.6715729 1.5 1.5 1.5v1c-1.3807119 0-2.5-1.1192881-2.5-2.5z"/></g></svg>